<?xml version="1.0" encoding="UTF-8" standalone="no"?>
<!DOCTYPE svg PUBLIC "-//W3C//DTD SVG 1.1//EN" "http://www.w3.org/Graphics/SVG/1.1/DTD/svg11.dtd">
<svg width="100%" height="100%" viewBox="0 0 240 96" version="1.1" xmlns="http://www.w3.org/2000/svg" xmlns:xlink="http://www.w3.org/1999/xlink" xml:space="preserve" xmlns:serif="http://www.serif.com/" style="fill-rule:evenodd;clip-rule:evenodd;stroke-linejoin:round;stroke-miterlimit:2;">
    <g transform="matrix(0.48,0,0,0.48,0,0)">
        <g transform="matrix(-1.38889,-1.7009e-16,1.22465e-16,-1,507.485,225.761)">
            <path d="M46.963,33.693C46.963,29.315 44.404,25.761 41.252,25.761L29.831,25.761C26.679,25.761 24.12,29.315 24.12,33.693L24.12,103.701C24.12,108.079 26.679,111.633 29.831,111.633L41.252,111.633C44.404,111.633 46.963,108.079 46.963,103.701L46.963,33.693Z" style="fill:rgb(123,159,154);"/>
        </g>
        <g transform="matrix(-1.38889,-1.7009e-16,1.22465e-16,-1,91.2413,225.761)">
            <path d="M46.963,33.693C46.963,29.315 44.404,25.761 41.252,25.761L29.831,25.761C26.679,25.761 24.12,29.315 24.12,33.693L24.12,103.701C24.12,108.079 26.679,111.633 29.831,111.633L41.252,111.633C44.404,111.633 46.963,108.079 46.963,103.701L46.963,33.693Z" style="fill:rgb(123,159,154);"/>
        </g>
        <g transform="matrix(-0.832487,-1.0195e-16,1.22465e-16,-1,458.122,100)">
            <path d="M500,-100L0,-100L0,49.89C0,77.565 26.949,100 60.193,100L439.817,100C473.055,100 500,77.569 500,49.898C500,-9.343 500,-100 500,-100Z" style="fill:rgb(156,183,179);"/>
        </g>
        <g transform="matrix(-1,-1.22465e-16,1.76493e-16,-1.44118,495.355,283.962)">
            <g transform="matrix(1,0,0,1,-96.4467,-4.23012)">
                <ellipse cx="198.613" cy="187.352" rx="17.555" ry="7.191" style="fill:rgb(123,159,154);"/>
            </g>
            <g transform="matrix(1,0,0,1,189.932,-4.23012)">
                <ellipse cx="198.613" cy="187.352" rx="17.555" ry="7.191" style="fill:rgb(123,159,154);"/>
            </g>
        </g>
        <path d="M57.741,100L442.259,100C442.259,100 442.259,45.643 250,45.643C57.741,45.643 57.741,100 57.741,100Z" style="fill:rgb(123,159,154);"/>
    </g>
</svg>
