<?xml version="1.0" encoding="UTF-8" standalone="no"?><!DOCTYPE svg PUBLIC "-//W3C//DTD SVG 1.1//EN" "http://www.w3.org/Graphics/SVG/1.1/DTD/svg11.dtd"><svg width="100%" height="100%" viewBox="0 0 100 100" version="1.1" xmlns="http://www.w3.org/2000/svg" xmlns:xlink="http://www.w3.org/1999/xlink" xml:space="preserve" xmlns:serif="http://www.serif.com/" style="fill-rule:evenodd;clip-rule:evenodd;stroke-linejoin:round;stroke-miterlimit:2;"><path d="M35.417,89.04c-15.815,-5.915 -27.084,-21.17 -27.084,-39.04c0,-23 18.667,-41.667 41.667,-41.667c23,0 41.667,18.667 41.667,41.667c-0,17.87 -11.269,33.125 -27.084,39.04l0,-20.721c0.657,-0.16 1.374,-0.344 1.863,-0.494c0.015,-0.005 0.031,-0.01 0.046,-0.015c0.239,-0.08 0.516,-0.159 0.758,-0.239c1.661,-0.501 3.552,-1.11 5.183,-2.065c1.941,-1.136 3.522,-2.74 4.227,-5.065c1.061,-3.432 -0.178,-7.248 -0.966,-10.586c-0.002,-0.009 -0.004,-0.018 -0.006,-0.027c-0.845,-3.377 -1.816,-6.757 -2.872,-10.05c-0.485,-1.499 -0.893,-3.085 -1.555,-4.496c-0.003,-0.007 -0.007,-0.015 -0.011,-0.023c-0.887,-1.834 -3.214,-3.76 -5.581,-3.998c-2.76,-0.287 -5.252,2.011 -5.252,4.989l-0,53.5c-0,0.202 0.028,0.397 0.082,0.581c-3.355,0.872 -6.873,1.336 -10.499,1.336c-3.626,-0 -7.144,-0.464 -10.499,-1.336c0.054,-0.184 0.082,-0.379 0.082,-0.581l0,-29.48c7.079,-1.008 12.5,-7.075 12.5,-14.437l0,-8.333c0,-1.15 -0.933,-2.083 -2.083,-2.083c-1.15,-0 -2.083,0.933 -2.083,2.083l-0,8.333c-0,2.348 -0.772,4.511 -2.076,6.25l-6.258,0l0,-14.583c0,-1.15 -0.933,-2.083 -2.083,-2.083c-1.15,-0 -2.083,0.933 -2.083,2.083l-0,14.583l-6.258,0c-1.304,-1.739 -2.076,-3.902 -2.076,-6.25l0,-8.333c0,-1.15 -0.933,-2.083 -2.083,-2.083c-1.15,-0 -2.083,0.933 -2.083,2.083l-0,8.333c-0,7.362 5.421,13.429 12.5,14.437l-0,28.77Zm29.166,-25.017l0,-27.773c0,-0.44 0.249,-0.888 0.657,-0.845l0.011,0.001c0.957,0.096 1.87,0.905 2.239,1.648c0.59,1.262 0.931,2.674 1.361,4.004c1.025,3.199 1.971,6.486 2.792,9.772c0.63,2.655 1.882,5.658 1.034,8.385l-0.005,0.015c-0.379,1.256 -1.297,2.067 -2.344,2.68c-1.351,0.791 -2.93,1.264 -4.304,1.679c-0.019,0.005 -0.039,0.012 -0.058,0.018c-0.25,0.083 -0.541,0.166 -0.791,0.25c-0.147,0.044 -0.361,0.104 -0.592,0.166Z" style="fill:#5589A7;"/></svg>
