<?xml version="1.0" encoding="UTF-8" standalone="no"?><!DOCTYPE svg PUBLIC "-//W3C//DTD SVG 1.1//EN" "http://www.w3.org/Graphics/SVG/1.1/DTD/svg11.dtd"><svg width="100%" height="100%" viewBox="0 0 100 100" version="1.1" xmlns="http://www.w3.org/2000/svg" xmlns:xlink="http://www.w3.org/1999/xlink" xml:space="preserve" xmlns:serif="http://www.serif.com/" style="fill-rule:evenodd;clip-rule:evenodd;stroke-linejoin:round;stroke-miterlimit:2;"><path d="M50,6.248c24.147,-0 43.752,19.605 43.752,43.752c-0,24.147 -19.605,43.752 -43.752,43.752c-24.147,-0 -43.752,-19.605 -43.752,-43.752c-0,-24.147 19.605,-43.752 43.752,-43.752Zm-27.839,71.878c7.153,7.081 16.989,11.456 27.839,11.456c10.85,-0 20.686,-4.375 27.839,-11.456c-5.289,-9.184 -15.753,-15.443 -27.839,-15.443c-12.086,0 -22.551,6.259 -27.839,15.443Zm27.839,-18.838c12.896,-0 23.351,-10.455 23.351,-23.351c-0,-12.896 -10.455,-23.351 -23.351,-23.351c-12.896,-0 -23.351,10.455 -23.351,23.351c-0,12.896 10.455,23.351 23.351,23.351Zm4.203,-5.548l-5.757,-0c0.247,-4.735 0.371,-9.65 0.371,-14.744c-0,-5.903 -0.124,-10.256 -0.371,-13.062l-7.675,3.838l-1.582,-2.929l12.119,-8.921l2.895,-0c-0.225,7.249 -0.337,14.274 -0.337,21.074c-0,4.802 0.112,9.717 0.337,14.744Z" style="fill:#221b38;"/></svg>