<?xml version="1.0" encoding="UTF-8" standalone="no"?><!DOCTYPE svg PUBLIC "-//W3C//DTD SVG 1.1//EN" "http://www.w3.org/Graphics/SVG/1.1/DTD/svg11.dtd"><svg width="100%" height="100%" viewBox="0 0 100 100" version="1.1" xmlns="http://www.w3.org/2000/svg" xmlns:xlink="http://www.w3.org/1999/xlink" xml:space="preserve" xmlns:serif="http://www.serif.com/" style="fill-rule:evenodd;clip-rule:evenodd;stroke-linejoin:round;stroke-miterlimit:2;"><path d="M50,6.25c24.146,0 43.75,19.604 43.75,43.75c0,24.146 -19.604,43.75 -43.75,43.75c-24.146,0 -43.75,-19.604 -43.75,-43.75c0,-24.146 19.604,-43.75 43.75,-43.75Zm13.333,66.783l-4.201,-8.598c-1.01,8.543 -8.409,15.203 -17.087,15.203c-9.485,-0 -17.221,-7.736 -17.221,-17.221c0,-5.853 3.027,-11.436 7.938,-14.53l-0.537,-7.012c-8.303,3.782 -13.866,12.313 -13.866,21.494c-0,13.075 10.664,23.739 23.739,23.739c8.902,-0 17.247,-5.193 21.235,-13.075Zm-23.76,-46.29c3.269,-0.302 5.809,-3.119 5.809,-6.413c-0,-3.546 -2.892,-6.438 -6.438,-6.438c-3.546,0 -6.438,2.892 -6.438,6.438c0,1.081 0.302,2.188 0.805,3.118l2.294,32.278l23.625,0.006l9.689,22.704l12.722,-4.989l-1.97,-4.691l-7.119,2.57l-9.376,-21.645l-21.966,0.147l-0.301,-4.087l15.901,0.006l0,-6.048l-16.508,-0.007l-0.729,-12.949Z" style="fill:#221b38;"/></svg>