<?xml version="1.0" encoding="UTF-8" standalone="no"?><!DOCTYPE svg PUBLIC "-//W3C//DTD SVG 1.1//EN" "http://www.w3.org/Graphics/SVG/1.1/DTD/svg11.dtd"><svg width="100%" height="100%" viewBox="0 0 100 100" version="1.1" xmlns="http://www.w3.org/2000/svg" xmlns:xlink="http://www.w3.org/1999/xlink" xml:space="preserve" xmlns:serif="http://www.serif.com/" style="fill-rule:evenodd;clip-rule:evenodd;stroke-linejoin:round;stroke-miterlimit:2;"><path d="M50,6.25c24.146,0 43.75,19.604 43.75,43.75c0,24.146 -19.604,43.75 -43.75,43.75c-24.146,0 -43.75,-19.604 -43.75,-43.75c0,-24.146 19.604,-43.75 43.75,-43.75Zm-27.298,16.452c-1.224,1.224 -1.224,3.209 0,4.434l22.864,22.864l-22.864,22.864c-1.224,1.224 -1.224,3.21 0,4.434c1.224,1.224 3.209,1.224 4.434,-0l25.081,-25.081c1.224,-1.224 1.224,-3.21 -0,-4.434l-25.081,-25.081c-1.225,-1.224 -3.21,-1.224 -4.434,0Zm25.081,0c-1.224,1.224 -1.224,3.209 0,4.434l22.864,22.864l-22.864,22.864c-1.224,1.224 -1.224,3.21 0,4.434c1.224,1.224 3.21,1.224 4.434,-0l25.081,-25.081c1.224,-1.224 1.224,-3.21 -0,-4.434l-25.081,-25.081c-1.224,-1.224 -3.21,-1.224 -4.434,0Z" style="fill:#221b38;"/></svg>