<?xml version="1.0" encoding="UTF-8" standalone="no"?><!DOCTYPE svg PUBLIC "-//W3C//DTD SVG 1.1//EN" "http://www.w3.org/Graphics/SVG/1.1/DTD/svg11.dtd"><svg width="100%" height="100%" viewBox="0 0 100 100" version="1.1" xmlns="http://www.w3.org/2000/svg" xmlns:xlink="http://www.w3.org/1999/xlink" xml:space="preserve" xmlns:serif="http://www.serif.com/" style="fill-rule:evenodd;clip-rule:evenodd;stroke-linejoin:round;stroke-miterlimit:2;"><path d="M50,6.25c24.146,0 43.75,19.604 43.75,43.75c0,24.146 -19.604,43.75 -43.75,43.75c-24.146,0 -43.75,-19.604 -43.75,-43.75c0,-24.146 19.604,-43.75 43.75,-43.75Zm33.104,35.474l-13.242,0c-0.914,0 -1.655,-0.741 -1.655,-1.655l0,-13.242l-48,0c-1.821,0 -3.311,1.49 -3.311,3.311l0,39.724c0,1.821 1.49,3.311 3.311,3.311l59.586,-0c1.821,-0 3.311,-1.49 3.311,-3.311l-0,-28.138Zm-33.104,19.862c-6.399,0 -11.586,-5.187 -11.586,-11.586c-0,-6.399 5.187,-11.586 11.586,-11.586c6.399,-0 11.586,5.187 11.586,11.586c0,6.399 -5.187,11.586 -11.586,11.586Zm0,-3.31c4.571,-0 8.276,-3.705 8.276,-8.276c-0,-4.571 -3.705,-8.276 -8.276,-8.276c-4.571,0 -8.276,3.705 -8.276,8.276c0,4.571 3.705,8.276 8.276,8.276Zm-21.517,-16.552c-1.829,0 -3.311,-1.482 -3.311,-3.31c0,-1.829 1.482,-3.311 3.311,-3.311c1.828,0 3.31,1.482 3.31,3.311c-0,1.828 -1.482,3.31 -3.31,3.31Zm43.034,-14.897l0.001,11.587l11.586,-0l-0,-8.276c-0,-1.821 -1.49,-3.311 -3.311,-3.311l-8.276,0Z" style="fill:#221b38;"/></svg>