<?xml version="1.0" encoding="UTF-8" standalone="no"?><!DOCTYPE svg PUBLIC "-//W3C//DTD SVG 1.1//EN" "http://www.w3.org/Graphics/SVG/1.1/DTD/svg11.dtd"><svg width="100%" height="100%" viewBox="0 0 105 105" version="1.1" xmlns="http://www.w3.org/2000/svg" xmlns:xlink="http://www.w3.org/1999/xlink" xml:space="preserve" xmlns:serif="http://www.serif.com/" style="fill-rule:evenodd;clip-rule:evenodd;stroke-linejoin:round;stroke-miterlimit:2;"><path d="M23.228,2.763c0.007,-1.528 1.179,-2.763 2.622,-2.763l75.517,0c0.743,-0 1.455,0.312 1.98,0.868c0.525,0.556 0.82,1.309 0.82,2.095l-0.009,86.171c-0.001,8.303 -6.36,15.033 -14.205,15.033l-69.391,-0c0.947,-1.327 1.697,-3.283 2.27,-5.798l0.396,-95.606Zm60.706,70.728l-40.346,0c-0.798,0 -1.564,0.336 -2.128,0.933c-0.565,0.598 -0.882,1.408 -0.882,2.253c-0,0.845 0.317,1.655 0.882,2.253c0.564,0.597 1.33,0.933 2.128,0.933l40.346,-0c1.662,-0 3.01,-1.426 3.01,-3.186c0,-0.845 -0.317,-1.655 -0.882,-2.253c-0.564,-0.597 -1.33,-0.933 -2.128,-0.933Zm-0,-55.392l-40.346,0c-0.798,0 -1.564,0.336 -2.128,0.934c-0.565,0.597 -0.882,1.407 -0.882,2.252c-0,0.845 0.317,1.656 0.882,2.253c0.564,0.598 1.33,0.933 2.128,0.933l40.346,0c1.662,0 3.01,-1.426 3.01,-3.186c0,-0.845 -0.317,-1.655 -0.882,-2.252c-0.564,-0.598 -1.33,-0.934 -2.128,-0.934Zm-0,36.818l-40.346,-0c-0.798,-0 -1.564,0.336 -2.128,0.933c-0.565,0.597 -0.882,1.408 -0.882,2.253c-0,0.845 0.317,1.655 0.882,2.252c0.564,0.598 1.33,0.934 2.128,0.934l40.346,-0c1.662,-0 3.01,-1.427 3.01,-3.186c0,-0.845 -0.317,-1.656 -0.882,-2.253c-0.564,-0.597 -1.33,-0.933 -2.128,-0.933Zm-0,-18.057l-40.346,-0c-0.798,-0 -1.564,0.335 -2.128,0.933c-0.565,0.597 -0.882,1.407 -0.882,2.252c-0,0.845 0.317,1.656 0.882,2.253c0.564,0.598 1.33,0.933 2.128,0.933l40.346,0c1.662,0 3.01,-1.426 3.01,-3.186c0,-0.845 -0.317,-1.655 -0.882,-2.252c-0.564,-0.598 -1.33,-0.933 -2.128,-0.933Zm-69.509,-24.821c0.803,-0 1.573,0.337 2.14,0.938c0.568,0.601 0.887,1.416 0.887,2.266l0,79.486c0,2.503 -0.939,4.904 -2.612,6.674c-1.672,1.769 -3.94,2.764 -6.305,2.764c-4.714,-0 -8.535,-4.045 -8.535,-9.034l0,-80.52c-0,-1.422 1.089,-2.574 2.432,-2.574l11.993,-0Z" style="fill:#fff;"/></svg>