<?xml version="1.0" encoding="UTF-8" standalone="no"?><!DOCTYPE svg PUBLIC "-//W3C//DTD SVG 1.1//EN" "http://www.w3.org/Graphics/SVG/1.1/DTD/svg11.dtd"><svg width="100%" height="100%" viewBox="0 0 125 105" version="1.1" xmlns="http://www.w3.org/2000/svg" xmlns:xlink="http://www.w3.org/1999/xlink" xml:space="preserve" xmlns:serif="http://www.serif.com/" style="fill-rule:evenodd;clip-rule:evenodd;stroke-linejoin:round;stroke-miterlimit:2;"><path d="M82.818,20.797l10.49,-0l0,83.37l-62.389,-0l-0,-83.37l10.49,-0l0,-10.399c0,-5.743 4.655,-10.398 10.398,-10.398l20.613,-0c5.743,0 10.398,4.655 10.398,10.398l0,10.399Zm-31.06,-0l20.687,-0l0,-10.332l-20.687,0l-0,10.332Zm-30.961,-0l-0,83.37l-10.491,-0c-2.733,-0 -5.355,-1.086 -7.287,-3.019c-1.933,-1.933 -3.019,-4.554 -3.019,-7.288l0,-62.757c-0,-2.734 1.086,-5.355 3.019,-7.288c1.932,-1.933 4.554,-3.018 7.287,-3.018l10.491,-0Zm93.4,-0c2.758,-0 5.402,1.095 7.353,3.045c1.95,1.95 3.045,4.595 3.045,7.353l0,62.573c0,2.758 -1.095,5.403 -3.045,7.353c-1.951,1.95 -4.595,3.046 -7.353,3.046l-10.398,-0l-0,-83.37l10.398,-0Z" style="fill:#fff;"/></svg>