<?xml version="1.0" encoding="UTF-8" standalone="no"?>
<svg
   width="100%"
   height="100%"
   viewBox="0 0 5000 5000"
   version="1.1"
   xml:space="preserve"
   style="fill-rule:evenodd;clip-rule:evenodd;stroke-linejoin:round;stroke-miterlimit:2;"
   id="svg71"
   sodipodi:docname="ExperienceLogger-Icon.svg"
   inkscape:export-filename="C:\Web-Workspace\htdocs\experiencelogger\apple-touch-icon.png"
   inkscape:export-xdpi="2.46"
   inkscape:export-ydpi="2.46"
   inkscape:version="1.1 (c68e22c387, 2021-05-23)"
   xmlns:inkscape="http://www.inkscape.org/namespaces/inkscape"
   xmlns:sodipodi="http://sodipodi.sourceforge.net/DTD/sodipodi-0.dtd"
   xmlns="http://www.w3.org/2000/svg"
   xmlns:svg="http://www.w3.org/2000/svg"><defs
   id="defs75" /><sodipodi:namedview
   id="namedview73"
   pagecolor="#505050"
   bordercolor="#ffffff"
   borderopacity="1"
   inkscape:pageshadow="0"
   inkscape:pageopacity="0"
   inkscape:pagecheckerboard="1"
   showgrid="false"
   inkscape:zoom="0.0824"
   inkscape:cx="2457.5243"
   inkscape:cy="3185.6796"
   inkscape:window-width="1920"
   inkscape:window-height="1009"
   inkscape:window-x="-8"
   inkscape:window-y="-8"
   inkscape:window-maximized="1"
   inkscape:current-layer="svg71" />
    <g
   id="ArtBoard2"
   transform="matrix(1.5436893,0,0,1.5436893,-9399.2667,-119.2233)">
        <rect
   x="5208.3301"
   y="0"
   width="5000"
   height="5000"
   style="fill:none"
   id="rect2" />
        <g
   transform="translate(-0.407969,2029.39)"
   id="g64">
            <g
   transform="matrix(16.3188,0,0,16.3188,-91695.2,-33137.6)"
   id="g24">
                <path
   d="m 5953.31,2154.15 h 17.65 v -5.2 h -17.65 z m 0,-29.8 h 17.65 v -5.2 h -17.65 z m 0,13.6 h 16.65 v -5.1 h -16.65 z m -3.65,-18.8 v 35 h 5.8 v -35 z"
   style="fill:#266056;fill-rule:nonzero"
   id="path4" />
                <path
   d="m 5996.36,2119.15 -6.7,11.8 -6.55,-11.8 h -7.15 l 10.4,16.8 -11.65,18.2 h 7.15 l 7.75,-13.45 7.5,13.45 h 7.2 l -11.35,-18.2 10.6,-16.8 z"
   style="fill:#266056;fill-rule:nonzero"
   id="path6" />
                <path
   d="m 6008.61,2119.15 v 35 h 5.9 v -35 z m 3.5,5.2 h 7.05 c 2.03,0 3.67,0.47 4.9,1.43 1.23,0.94 1.85,2.35 1.85,4.22 0,1.87 -0.62,3.28 -1.85,4.25 -1.23,0.97 -2.87,1.45 -4.9,1.45 h -7.05 v 5.2 h 7.05 c 2.57,0 4.78,-0.44 6.65,-1.33 1.87,-0.88 3.33,-2.14 4.38,-3.77 1.04,-1.63 1.57,-3.57 1.57,-5.8 0,-2.23 -0.53,-4.16 -1.57,-5.78 -1.05,-1.61 -2.51,-2.86 -4.38,-3.75 -1.87,-0.88 -4.08,-1.32 -6.65,-1.32 h -7.05 z"
   style="fill:#266056;fill-rule:nonzero"
   id="path8" />
                <path
   d="m 6041.16,2154.15 h 17.65 v -5.2 h -17.65 z m 0,-29.8 h 17.65 v -5.2 h -17.65 z m 0,13.6 h 16.65 v -5.1 h -16.65 z m -3.65,-18.8 v 35 h 5.8 v -35 z"
   style="fill:#266056;fill-rule:nonzero"
   id="path10" />
                <path
   d="m 6073.31,2137.45 11.1,16.7 h 7.15 l -11.9,-16.7 z m -7.25,-18.3 v 35 h 5.9 v -35 z m 3.5,5.1 h 7.05 c 1.37,0 2.55,0.23 3.55,0.7 1,0.47 1.78,1.13 2.35,2 0.57,0.87 0.85,1.93 0.85,3.2 0,1.23 -0.28,2.29 -0.85,3.17 -0.57,0.89 -1.35,1.56 -2.35,2 -1,0.46 -2.18,0.68 -3.55,0.68 h -7.05 v 4.9 h 7.3 c 2.57,0 4.78,-0.45 6.65,-1.35 1.87,-0.9 3.33,-2.17 4.38,-3.8 1.05,-1.63 1.57,-3.55 1.57,-5.75 0,-2.2 -0.52,-4.11 -1.57,-5.72 -1.05,-1.62 -2.51,-2.88 -4.38,-3.78 -1.87,-0.9 -4.08,-1.35 -6.65,-1.35 h -7.3 z"
   style="fill:#266056;fill-rule:nonzero"
   id="path12" />
                <rect
   x="6095.8101"
   y="2119.1499"
   width="6"
   height="35"
   style="fill:#266056;fill-rule:nonzero"
   id="rect14" />
                <path
   d="m 6113.21,2154.15 h 17.65 v -5.2 h -17.65 z m 0,-29.8 h 17.65 v -5.2 h -17.65 z m 0,13.6 h 16.65 v -5.1 h -16.65 z m -3.65,-18.8 v 35 h 5.8 v -35 z"
   style="fill:#266056;fill-rule:nonzero"
   id="path16" />
                <path
   d="m 6163.66,2119.15 v 23.5 l -25.55,-25.25 v 36.75 h 5.8 v -23.5 l 25.55,25.25 v -36.75 z"
   style="fill:#266056;fill-rule:nonzero"
   id="path18" />
                <path
   d="m 6181.66,2136.65 c 0,-2.5 0.56,-4.68 1.68,-6.53 1.11,-1.84 2.57,-3.28 4.37,-4.3 1.8,-1.01 3.77,-1.52 5.9,-1.52 1.67,0 3.17,0.22 4.53,0.65 1.35,0.43 2.55,1.02 3.62,1.77 1.07,0.75 2,1.6 2.8,2.53 v -7 c -1.43,-1.23 -3.01,-2.17 -4.72,-2.8 -1.72,-0.63 -3.86,-0.95 -6.43,-0.95 -2.57,0 -4.96,0.44 -7.17,1.32 -2.22,0.89 -4.15,2.14 -5.78,3.75 -1.63,1.62 -2.91,3.54 -3.82,5.75 -0.92,2.22 -1.38,4.66 -1.38,7.33 0,2.63 0.46,5.06 1.38,7.28 0.91,2.21 2.19,4.14 3.82,5.77 1.63,1.63 3.56,2.88 5.78,3.75 2.21,0.87 4.6,1.3 7.17,1.3 2.57,0 4.71,-0.32 6.43,-0.95 1.71,-0.63 3.29,-1.55 4.72,-2.75 V 2144 c -0.8,0.97 -1.73,1.82 -2.8,2.57 -1.07,0.75 -2.27,1.35 -3.62,1.78 -1.36,0.43 -2.86,0.65 -4.53,0.65 -2.13,0 -4.1,-0.52 -5.9,-1.55 -1.8,-1.03 -3.26,-2.48 -4.37,-4.33 -1.12,-1.84 -1.68,-4 -1.68,-6.47 z"
   style="fill:#266056;fill-rule:nonzero"
   id="path20" />
                <path
   d="m 6215.46,2154.15 h 17.65 v -5.2 h -17.65 z m 0,-29.8 h 17.65 v -5.2 h -17.65 z m 0,13.6 h 16.65 v -5.1 h -16.65 z m -3.65,-18.8 v 35 h 5.8 v -35 z"
   style="fill:#266056;fill-rule:nonzero"
   id="path22" />
            </g>
            <g
   transform="matrix(16.3188,0,0,16.3188,-91695.2,-32367.5)"
   id="g38">
                <path
   d="m 5998.36,2119.15 v 35 h 18 v -4 h -13.75 v -31 z"
   style="fill:#266056;fill-rule:nonzero"
   id="path26" />
                <path
   d="m 6021.86,2136.65 c 0,-2.63 0.58,-4.98 1.73,-7.05 1.14,-2.07 2.72,-3.7 4.72,-4.9 2,-1.2 4.27,-1.8 6.8,-1.8 2.57,0 4.84,0.6 6.83,1.8 1.98,1.2 3.54,2.83 4.7,4.9 1.14,2.07 1.72,4.42 1.72,7.05 0,2.63 -0.58,4.98 -1.72,7.05 -1.16,2.07 -2.72,3.7 -4.7,4.9 -1.99,1.2 -4.26,1.8 -6.83,1.8 -2.53,0 -4.8,-0.6 -6.8,-1.8 -2,-1.2 -3.58,-2.83 -4.72,-4.9 -1.15,-2.07 -1.73,-4.42 -1.73,-7.05 z m -4.5,0 c 0,2.53 0.44,4.9 1.33,7.1 0.88,2.2 2.12,4.11 3.72,5.72 1.6,1.62 3.48,2.89 5.65,3.81 2.17,0.91 4.52,1.37 7.05,1.37 2.57,0 4.92,-0.46 7.08,-1.37 2.15,-0.92 4.02,-2.19 5.62,-3.81 1.6,-1.61 2.84,-3.52 3.72,-5.72 0.89,-2.2 1.33,-4.57 1.33,-7.1 0,-2.57 -0.44,-4.94 -1.33,-7.12 -0.88,-2.19 -2.12,-4.09 -3.72,-5.71 -1.6,-1.61 -3.47,-2.88 -5.62,-3.79 -2.16,-0.92 -4.51,-1.38 -7.08,-1.38 -2.53,0 -4.88,0.46 -7.05,1.38 -2.17,0.91 -4.05,2.18 -5.65,3.79 -1.6,1.62 -2.84,3.52 -3.72,5.71 -0.89,2.18 -1.33,4.55 -1.33,7.12 z"
   style="fill:#266056;fill-rule:nonzero"
   id="path28" />
                <path
   d="m 6075.11,2140.4 h 11.65 c -0.3,1.37 -0.78,2.65 -1.42,3.85 -0.65,1.2 -1.48,2.27 -2.48,3.2 -1,0.93 -2.19,1.66 -3.58,2.17 -1.38,0.52 -2.94,0.78 -4.67,0.78 -2.47,0 -4.7,-0.58 -6.7,-1.75 -2,-1.17 -3.59,-2.78 -4.77,-4.85 -1.19,-2.07 -1.78,-4.45 -1.78,-7.15 0,-2.73 0.59,-5.12 1.78,-7.18 1.18,-2.04 2.77,-3.65 4.77,-4.82 2,-1.17 4.23,-1.75 6.7,-1.75 2.67,0 4.98,0.53 6.95,1.57 1.97,1.06 3.5,2.51 4.6,4.38 l 3,-2.75 c -1,-1.63 -2.22,-3 -3.68,-4.1 -1.45,-1.1 -3.08,-1.93 -4.89,-2.5 -1.82,-0.57 -3.81,-0.85 -5.98,-0.85 -2.53,0 -4.88,0.44 -7.05,1.32 -2.17,0.89 -4.05,2.14 -5.65,3.75 -1.6,1.62 -2.84,3.53 -3.72,5.73 -0.89,2.2 -1.33,4.6 -1.33,7.2 0,2.6 0.44,5 1.33,7.2 0.88,2.2 2.12,4.11 3.72,5.72 1.6,1.62 3.48,2.87 5.65,3.75 2.17,0.89 4.52,1.33 7.05,1.33 2.67,0 5.04,-0.49 7.12,-1.47 2.09,-0.99 3.85,-2.33 5.28,-4.03 1.43,-1.7 2.52,-3.64 3.25,-5.83 0.73,-2.18 1.1,-4.49 1.1,-6.92 h -16.25 z"
   style="fill:#266056;fill-rule:nonzero"
   id="path30" />
                <path
   d="m 6113.86,2140.4 h 11.65 c -0.3,1.37 -0.77,2.65 -1.42,3.85 -0.65,1.2 -1.48,2.27 -2.48,3.2 -1,0.93 -2.19,1.66 -3.58,2.17 -1.38,0.52 -2.94,0.78 -4.67,0.78 -2.47,0 -4.7,-0.58 -6.7,-1.75 -2,-1.17 -3.59,-2.78 -4.77,-4.85 -1.19,-2.07 -1.78,-4.45 -1.78,-7.15 0,-2.73 0.59,-5.12 1.78,-7.18 1.18,-2.04 2.77,-3.65 4.77,-4.82 2,-1.17 4.23,-1.75 6.7,-1.75 2.67,0 4.98,0.53 6.95,1.57 1.97,1.06 3.5,2.51 4.6,4.38 l 3,-2.75 c -1,-1.63 -2.22,-3 -3.67,-4.1 -1.46,-1.1 -3.09,-1.93 -4.9,-2.5 -1.82,-0.57 -3.81,-0.85 -5.98,-0.85 -2.53,0 -4.88,0.44 -7.05,1.32 -2.17,0.89 -4.05,2.14 -5.65,3.75 -1.6,1.62 -2.84,3.53 -3.72,5.73 -0.89,2.2 -1.33,4.6 -1.33,7.2 0,2.6 0.44,5 1.33,7.2 0.88,2.2 2.12,4.11 3.72,5.72 1.6,1.62 3.48,2.87 5.65,3.75 2.17,0.89 4.52,1.33 7.05,1.33 2.67,0 5.04,-0.49 7.13,-1.47 2.08,-0.99 3.84,-2.33 5.27,-4.03 1.43,-1.7 2.52,-3.64 3.25,-5.83 0.73,-2.18 1.1,-4.49 1.1,-6.92 h -16.25 z"
   style="fill:#266056;fill-rule:nonzero"
   id="path32" />
                <path
   d="m 6138.71,2154.15 h 17.65 v -4 h -17.65 z m 0,-31 h 17.65 v -4 h -17.65 z m 0,14 h 16.65 v -4 h -16.65 z m -2.35,-18 v 35 h 4.25 v -35 z"
   style="fill:#266056;fill-rule:nonzero"
   id="path34" />
                <path
   d="m 6170.11,2136.9 12,17.25 h 5.25 l -12.5,-17.25 z m -6.25,-17.75 v 35 h 4.25 v -35 z m 2.35,3.75 h 7.15 c 1.5,0 2.83,0.27 3.98,0.8 1.15,0.53 2.05,1.3 2.69,2.3 0.66,1 0.98,2.22 0.98,3.65 0,1.43 -0.32,2.65 -0.98,3.65 -0.64,1 -1.54,1.77 -2.69,2.3 -1.15,0.53 -2.48,0.8 -3.98,0.8 h -7.15 v 3.75 h 7.15 c 2.27,0 4.29,-0.43 6.08,-1.27 1.78,-0.85 3.2,-2.07 4.25,-3.66 1.05,-1.58 1.57,-3.44 1.57,-5.57 0,-2.17 -0.52,-4.03 -1.57,-5.6 -1.05,-1.57 -2.47,-2.77 -4.25,-3.62 -1.79,-0.86 -3.81,-1.28 -6.08,-1.28 h -7.15 z"
   style="fill:#266056;fill-rule:nonzero"
   id="path36" />
            </g>
            <g
   transform="translate(3899.91)"
   id="g42">
                <path
   d="m 6121.61,2468.75 h -725.98 v 62.5 h 725.98 z"
   style="fill:#266056"
   id="path40" />
            </g>
            <g
   transform="matrix(0.553989,0,0,1,6306.42,-150)"
   id="g46">
                <path
   d="m 6121.61,2468.75 h -725.98 v 62.5 h 725.98 z"
   style="fill:#266056"
   id="path44" />
            </g>
            <g
   transform="matrix(0.553989,0,0,1,6306.42,150)"
   id="g50">
                <path
   d="m 6121.61,2468.75 h -725.98 v 62.5 h 725.98 z"
   style="fill:#266056"
   id="path48" />
            </g>
            <g
   transform="matrix(-1,0,0,1,11517.6,0)"
   id="g54">
                <path
   d="m 6121.61,2531.25 h -725.98 v -62.5 h 725.98 z"
   style="fill:#266056"
   id="path52" />
            </g>
            <g
   transform="matrix(-0.553989,0,0,1,9111.06,-150)"
   id="g58">
                <path
   d="m 6121.61,2531.25 h -725.98 v -62.5 h 725.98 z"
   style="fill:#266056"
   id="path56" />
            </g>
            <g
   transform="matrix(-0.553989,0,0,1,9111.06,150)"
   id="g62">
                <path
   d="m 6121.61,2531.25 h -725.98 v -62.5 h 725.98 z"
   style="fill:#266056"
   id="path60" />
            </g>
        </g>
        <g
   transform="matrix(1.00209,0,0,1.00209,-15.7576,-77.7024)"
   id="g68">
            <path
   d="M 7366.3,524.278 C 6926.07,644.597 6579.07,991.59 6458.74,1431.83 l -319.58,319.58 c -12.2,12.21 -12.2,31.99 0,44.2 l 319.58,319.57 c 34.37,125.77 87.23,243.92 155.49,351.35 v 400.54 h 400.44 c 107.52,68.34 225.76,121.27 351.63,155.67 l 319.39,319.39 c 12.21,12.21 31.99,12.21 44.2,0 l 319.26,-319.25 c 440.64,-120.23 787.97,-467.57 908.19,-908.2 l 319.08,-319.07 c 12.2,-12.21 12.2,-31.99 0,-44.2 l -319.08,-319.08 c -34.43,-126.16 -87.47,-244.67 -155.99,-352.41 V 679.947 H 8401.27 C 8293.66,611.527 8175.22,558.537 8049.15,524.141 L 7729.89,204.882 c -12.21,-12.204 -31.99,-12.204 -44.2,0 z m 341.49,2751.562 227.37,-227.37 c -73.83,13.08 -149.72,19.9 -227.19,19.9 -77.68,0 -153.78,-6.85 -227.63,-19.98 z M 7441.8,2977 l 265.99,-265.99 266.05,266.06 c -85.62,18.86 -174.59,28.8 -265.87,28.8 -91.35,0 -180.38,-9.96 -266.17,-28.87 z M 8044.46,587.723 7729.89,902.294 c -12.21,12.204 -31.99,12.204 -44.2,0 L 7371.2,587.803 c -409.7,116.274 -732.81,439.447 -849.01,849.217 l 314.38,314.39 c 12.21,12.21 12.21,31.99 0,44.2 l -314.38,314.38 c 29.69,104.72 72.9,203.77 127.62,295.19 h 426.31 v 426.38 c 91.35,54.71 190.38,97.93 295.08,127.65 l 314.49,-314.49 c 12.21,-12.2 31.99,-12.2 44.2,0 l 314.57,314.57 c 409.75,-116.21 732.88,-439.28 849.22,-849.01 L 8579,1795.61 c -12.2,-12.21 -12.2,-31.99 0,-44.2 l 314.68,-314.67 c -29.7,-104.62 -72.88,-203.6 -127.55,-294.9 H 8339.46 V 715.239 c -91.38,-54.672 -190.39,-97.845 -295,-127.516 z M 7509.83,1295.6 h -248.7 c -17.26,0 -31.25,13.99 -31.25,31.25 v 248.7 l -175.85,175.86 c -12.21,12.21 -12.21,31.99 0,44.2 l 175.85,175.85 v 248.7 c 0,17.26 13.99,31.25 31.25,31.25 h 248.7 l 175.86,175.86 c 12.21,12.21 31.99,12.21 44.2,0 l 175.85,-175.86 h 248.71 c 17.25,0 31.25,-13.99 31.25,-31.25 v -248.7 l 175.85,-175.85 c 12.21,-12.21 12.21,-31.99 0,-44.2 L 8185.7,1575.55 v -248.7 c 0,-17.26 -14,-31.25 -31.25,-31.25 h -248.71 l -175.85,-175.86 c -12.21,-12.2 -31.99,-12.2 -44.2,0 z m -217.45,893.31 h 154.95 l -154.95,-154.95 z m 830.82,-154.95 -154.96,154.95 h 154.96 z m 522.1,-260.45 266.16,-266.17 c 18.91,85.78 28.87,174.82 28.87,266.17 0,91.34 -9.96,180.38 -28.87,266.17 z m -2140.89,-265.87 265.87,265.87 -265.87,265.87 c -18.86,-85.62 -28.8,-174.59 -28.8,-265.87 0,-91.28 9.94,-180.25 28.8,-265.87 z m -298.96,265.87 227.64,227.63 c -13.13,-73.85 -19.98,-149.95 -19.98,-227.63 0,-77.68 6.85,-153.78 19.98,-227.63 z m 2777.48,-227.19 c 13.09,73.83 19.9,149.72 19.9,227.19 0,77.47 -6.81,153.36 -19.9,227.19 l 227.19,-227.19 z m -1535.6,-188.22 -154.95,154.95 v -154.95 0 z m 520.91,0 154.96,154.95 V 1358.1 Z m 5.6,-788.15 -266.05,266.052 -265.99,-265.987 c 85.79,-18.911 174.82,-28.87 266.17,-28.87 91.28,0 180.25,9.945 265.87,28.805 z m -493.5,-71.325 c 73.85,-13.125 149.95,-19.98 227.63,-19.98 77.47,0 153.36,6.817 227.19,19.902 L 7707.79,271.173 Z"
   style="fill:#266056"
   id="path66" />
        </g>
    </g>
</svg>
