<svg width="100%" height="100%" viewBox="0 0 68 68" version="1.1" xmlns="http://www.w3.org/2000/svg" xmlns:xlink="http://www.w3.org/1999/xlink" xml:space="preserve" xmlns:serif="http://www.serif.com/" style="fill-rule:evenodd;clip-rule:evenodd;stroke-linejoin:round;stroke-miterlimit:2;"><path d="M31.938,49.27L36.52,49.27L36.52,36.596L49.27,36.596L49.27,32.015L36.52,32.015L36.52,18.73L31.938,18.73L31.938,32.015L18.73,32.015L18.73,36.596L31.938,36.596L31.938,49.27ZM34,64.541C29.826,64.541 25.881,63.739 22.165,62.136C18.45,60.532 15.205,58.344 12.43,55.57C9.656,52.795 7.468,49.55 5.864,45.835C4.261,42.119 3.459,38.148 3.459,33.924C3.459,29.75 4.261,25.805 5.864,22.089C7.468,18.373 9.656,15.141 12.43,12.392C15.205,9.644 18.45,7.468 22.165,5.864C25.881,4.261 29.852,3.459 34.076,3.459C38.25,3.459 42.195,4.261 45.911,5.864C49.627,7.468 52.859,9.644 55.608,12.392C58.356,15.141 60.532,18.373 62.136,22.089C63.739,25.805 64.541,29.775 64.541,34C64.541,38.174 63.739,42.119 62.136,45.835C60.532,49.55 58.356,52.795 55.608,55.57C52.859,58.344 49.627,60.532 45.911,62.136C42.195,63.739 38.225,64.541 34,64.541Z" style="fill:white;fill-rule:nonzero;"/></svg>
