<svg
    width="100%"
    height="100%"
    viewBox="0 0 24 24"
    version="1.1"
    id="block-carousel"
    xmlns="http://www.w3.org/2000/svg"
    xmlns:svg="http://www.w3.org/2000/svg">
    <path
        style="fill:#ffffff;"
        d="m2.2692 1.0643c-0.66331 0-1.2048 0.54152-1.2048 1.2048v6.2199h0.48193v-6.2199c0-0.40465 0.31824-0.7229 0.7229-0.7229h19.462c0.40465 0 0.7229 0.31824 0.7229 0.7229v6.2199h0.48193v-6.2199c0-0.66331-0.54152-1.2048-1.2048-1.2048zm4.904 7.4116c-0.30542 0-0.55158 0.24617-0.55158 0.55158v5.9451c0 0.30542 0.24617 0.55159 0.55158 0.55159h9.8382c0.30542 0 0.55158-0.24617 0.55158-0.55159v-5.9451c0-0.30542-0.24617-0.55158-0.55158-0.55158zm10.614 0.57041v0.7982h4.3524c0.18681 0 0.33698 0.15017 0.33698 0.33698v3.6371c0 0.18681-0.15017 0.33698-0.33698 0.33698h-0.85468l-2.1122-2.1141-1.2218 2.1141h-0.16378v0.7982h5.049c0.256 0 0.46122-0.20711 0.46122-0.4631v-4.9812c0-0.256-0.20523-0.46311-0.46122-0.46311zm-16.623 0.00753c-0.25538 0-0.45934 0.20584-0.45934 0.46122v4.9699c0 0.25538 0.20396 0.46122 0.45934 0.46122h5.2636v-2.2158l-0.68901-0.68901-1.2199 2.1084h-2.6582c-0.18636 0-0.33509-0.15062-0.33509-0.33698v-3.6258c0-0.18636 0.14873-0.33698 0.33509-0.33698h4.567v-0.79632zm6.8393 0.37463h8.1778c0.22287 0 0.40098 0.17999 0.40098 0.40286v4.3374c0 0.22287-0.17811 0.40286-0.40098 0.40286h-1.0166l-2.5245-2.5226-1.4552 2.5226h-3.1815c-0.22287 0-0.40098-0.17999-0.40098-0.40286v-4.3374c0-0.22287 0.17811-0.40286 0.40098-0.40286zm1.4609 0.64571a1.222 1.222 0 0 0-1.2218 1.2218 1.222 1.222 0 0 0 1.2218 1.2237 1.222 1.222 0 0 0 1.2218-1.2237 1.222 1.222 0 0 0-1.2218-1.2218zm5.1732 0.15437-1.1578 2.003-0.14307 0.21084 1.8863 1.8957h0.98269c0.13168-0.0085 0.15127-0.09879 0.14307-0.20896l0.0019-2.1856zm-11.555 0.1619a1.0218 1.0218 0 0 0-1.0222 1.0203 1.0218 1.0218 0 0 0 1.0222 1.0241 1.0218 1.0218 0 0 0 1.0222-1.0241 1.0218 1.0218 0 0 0-1.0222-1.0203zm17.764 0.12425-0.97139 1.6792-0.1186 0.17696 1.5795 1.5889h0.82267c0.11037-0.0071 0.12735-0.08273 0.12048-0.17508l0.0038-1.8317zm-14.418 1.6981-0.1073 0.15813 0.1073 0.1073zm-5.3634 3.2436v6.2745c0 0.6633 0.54152 1.2048 1.2048 1.2048h19.462c0.66331 0 1.2048-0.54152 1.2048-1.2048v-6.2745h-0.48193v6.2745c0 0.40465-0.31824 0.7229-0.7229 0.7229h-19.462c-0.40465 0-0.7229-0.31824-0.7229-0.7229v-6.2745z"
        id="block-carousel"/>
</svg>
