<svg
    width="100%"
    height="100%"
    viewBox="0 0 24 24"
    version="1.1"
    id="block-textimage"
    xmlns="http://www.w3.org/2000/svg"
    xmlns:svg="http://www.w3.org/2000/svg">
    <path
        style="fill:#ffffff"
        d="M 2.2695312 1.0644531 C 1.6062258 1.0644531 1.0644531 1.6062256 1.0644531 2.2695312 L 1.0644531 5.0117188 L 1.546875 5.0117188 L 1.546875 2.2695312 C 1.546875 1.8648791 1.864879 1.546875 2.2695312 1.546875 L 21.730469 1.546875 C 22.135121 1.546875 22.453125 1.8648789 22.453125 2.2695312 L 22.453125 7.7070312 L 22.935547 7.7070312 L 22.935547 2.2695312 C 22.935547 1.6062258 22.393775 1.0644531 21.730469 1.0644531 L 2.2695312 1.0644531 z M 0.68359375 5.7070312 L 0.53515625 8.6582031 L 0.88867188 8.6582031 C 0.93198941 8.0888861 1.0679106 7.6368987 1.296875 7.3027344 C 1.5258395 6.9685701 1.801259 6.7425764 2.1230469 6.625 C 2.3705761 6.5383648 2.7871183 6.4960937 3.375 6.4960938 L 4.8886719 6.4960938 L 4.8886719 16.111328 C 4.8886719 16.816786 4.8216877 17.268774 4.6855469 17.466797 C 4.4627704 17.788585 4.0849218 17.949219 3.5527344 17.949219 L 3.1074219 17.949219 L 3.1074219 18.292969 L 8.4433594 18.292969 L 8.4433594 17.949219 L 8.0078125 17.949219 C 7.518942 17.949219 7.157027 17.820452 6.921875 17.560547 C 6.7547922 17.368712 6.671875 16.884857 6.671875 16.111328 L 6.671875 6.4960938 L 8.4433594 6.4960938 C 8.9631708 6.4960938 9.3816665 6.582589 9.6972656 6.7558594 C 10.019053 6.9229416 10.274962 7.1860046 10.466797 7.5449219 C 10.584373 7.7676981 10.678022 8.1383919 10.746094 8.6582031 L 11.099609 8.6582031 L 10.958984 5.7070312 L 0.68359375 5.7070312 z M 12.589844 8.2695312 C 12.26659 8.2695312 12.007812 8.5302719 12.007812 8.8535156 L 12.007812 15.146484 C 12.007812 15.469739 12.2666 15.730469 12.589844 15.730469 L 23.003906 15.730469 C 23.32716 15.730469 23.587891 15.469739 23.587891 15.146484 L 23.587891 8.8535156 C 23.587891 8.5302614 23.327149 8.2695312 23.003906 8.2695312 L 12.589844 8.2695312 z M 13.46875 9.2773438 L 22.125 9.2773438 C 22.360884 9.2773438 22.548828 9.4691942 22.548828 9.7050781 L 22.548828 14.294922 C 22.548828 14.530807 22.360884 14.722656 22.125 14.722656 L 21.048828 14.722656 L 18.376953 12.052734 L 16.835938 14.722656 L 13.46875 14.722656 C 13.232866 14.722656 13.044922 14.530807 13.044922 14.294922 L 13.044922 9.7050781 C 13.044922 9.4691942 13.232866 9.2773438 13.46875 9.2773438 z M 1.0644531 9.5625 L 1.0644531 21.730469 C 1.0644531 22.393774 1.6062258 22.935547 2.2695312 22.935547 L 21.730469 22.935547 C 22.393775 22.935547 22.935547 22.393774 22.935547 21.730469 L 22.935547 16.292969 L 22.453125 16.292969 L 22.453125 21.730469 C 22.453125 22.135121 22.135121 22.453125 21.730469 22.453125 L 2.2695312 22.453125 C 1.8648791 22.453125 1.546875 22.135121 1.546875 21.730469 L 1.546875 9.5625 L 1.0644531 9.5625 z M 15.015625 9.9609375 C 14.301489 9.9610535 13.722772 10.539771 13.722656 11.253906 C 13.721661 11.968827 14.300704 12.550665 15.015625 12.550781 C 15.730545 12.550665 16.309589 11.968827 16.308594 11.253906 C 16.308478 10.539771 15.72976 9.9610535 15.015625 9.9609375 z M 20.490234 10.125 L 19.265625 12.244141 L 19.113281 12.46875 L 21.111328 14.474609 L 22.150391 14.474609 C 22.28976 14.465609 22.311413 14.370509 22.302734 14.253906 L 22.304688 11.939453 L 20.490234 10.125 z "
        id="block-textimage" />
</svg>
