<svg
    width="100%"
    height="100%"
    viewBox="0 0 24 24"
    version="1.1"
    id="block-text"
    xmlns="http://www.w3.org/2000/svg"
    xmlns:svg="http://www.w3.org/2000/svg">
    <path
        style="fill:#ffffff;"
        d="M 2.2695312 1.0644531 C 1.6062256 1.0644531 1.0644531 1.6062256 1.0644531 2.2695312 L 1.0644531 21.730469 C 1.0644531 22.393774 1.6062258 22.935547 2.2695312 22.935547 L 21.730469 22.935547 C 22.393775 22.935547 22.935547 22.393774 22.935547 21.730469 L 22.935547 2.2695312 C 22.935547 1.6062256 22.393775 1.0644531 21.730469 1.0644531 L 2.2695312 1.0644531 z M 2.2695312 1.546875 L 21.730469 1.546875 C 22.135121 1.546875 22.453125 1.8648789 22.453125 2.2695312 L 22.453125 21.730469 C 22.453125 22.135121 22.135121 22.453125 21.730469 22.453125 L 2.2695312 22.453125 C 1.864879 22.453125 1.546875 22.135121 1.546875 21.730469 L 1.546875 2.2695312 C 1.546875 1.864879 1.864879 1.546875 2.2695312 1.546875 z M 5.3085938 3.7949219 L 5.1152344 7.6445312 L 5.5742188 7.6445312 C 5.6306888 6.9023546 5.8089379 6.3125786 6.1074219 5.8769531 C 6.405906 5.4413277 6.7641026 5.1474163 7.1835938 4.9941406 C 7.5062794 4.8812007 8.0519814 4.8242188 8.8183594 4.8242188 L 10.789062 4.8242188 L 10.789062 17.361328 C 10.789063 18.280981 10.700914 18.868804 10.523438 19.126953 C 10.23302 19.546444 9.7406485 19.755859 9.046875 19.755859 L 8.4667969 19.755859 L 8.4667969 20.205078 L 15.423828 20.205078 L 15.423828 19.755859 L 14.855469 19.755859 C 14.218165 19.755859 13.746004 19.586867 13.439453 19.248047 C 13.22164 18.997966 13.113281 18.36972 13.113281 17.361328 L 13.113281 4.8242188 L 15.423828 4.8242188 C 16.101468 4.8242188 16.64717 4.9381826 17.058594 5.1640625 C 17.478085 5.3818752 17.812419 5.7235122 18.0625 6.1914062 C 18.215775 6.4818232 18.337042 6.9668916 18.425781 7.6445312 L 18.884766 7.6445312 L 18.703125 3.7949219 L 5.3085938 3.7949219 z "
        id="block-text" />
</svg>
