<svg width="100%" height="100%" viewBox="0 0 2134 2134" version="1.1" xmlns="http://www.w3.org/2000/svg" xmlns:xlink="http://www.w3.org/1999/xlink" xml:space="preserve" xmlns:serif="http://www.serif.com/" style="fill-rule:evenodd;clip-rule:evenodd;stroke-linejoin:round;stroke-miterlimit:2;"><path d="M1366.54,183.93c114.43,-166.774 345.289,-211.862 514.142,-99.576l13.392,8.459c0.188,0.118 0.375,0.239 0.561,0.362c104.816,69.513 167.471,187.686 166.194,313.445c-0.259,104.545 -44.626,203.891 -121.376,273.8c69.407,137.631 105.645,289.749 105.645,444.113c0,541.073 -445.235,986.308 -986.308,986.308c-541.073,0 -986.309,-445.235 -986.309,-986.308c0,-175.499 46.842,-347.732 135.489,-498.907c-47.462,-64.081 -73.27,-141.911 -73.27,-222.024c-0,-124.067 61.896,-240.286 164.838,-309.525l13.603,-9.307c0.104,-0.071 0.209,-0.142 0.314,-0.212c162.177,-107.987 381.998,-70.956 500.649,80.786c182.125,-46.744 373.9,-40.282 552.436,18.586Zm256.29,-31.28c-6.314,1.33 -12.551,2.905 -18.7,4.717c7.702,7.984 18.375,21.221 21.064,24.584c0.274,0.037 0.465,0.058 0.562,0.068l-2.926,-29.369Zm-26.011,6.998c-0.034,0.011 -0.067,0.022 -0.101,0.033c0.95,3.868 2.607,7.075 4.665,9.732c-2.067,-2.904 -3.632,-6.199 -4.564,-9.765Zm4.564,9.765c5.356,7.524 14.078,12.421 23.867,12.608l-0.056,-0.07c-3.028,-0.404 -16.178,-2.687 -23.811,-12.538Zm24.445,13.334l-0.038,-0.049c-42.145,9.558 -80.225,31.603 -109.404,62.912c64.379,34.131 124.8,75.27 180.159,122.671c44.07,-46.59 99.441,-80.952 160.6,-99.789c-13.973,-17.464 -30.627,-32.714 -49.412,-45.144l-13.428,-8.481c-0.241,-0.152 -0.48,-0.308 -0.717,-0.467c-47.463,-31.907 -105.777,-43.524 -161.844,-32.243c-1.948,0.392 -3.929,0.59 -5.916,0.59Zm275.152,235.716c-35.543,11.7 -67.507,32.545 -92.579,60.503c16.376,19.013 32.023,38.639 46.91,58.835c26.888,-34.076 42.925,-75.704 45.669,-119.338Zm-355.114,1374.57c213.372,-154.544 343.285,-404.096 343.285,-672.173c-0,-455.195 -374.569,-829.764 -829.764,-829.764c-455.195,0 -829.764,374.569 -829.764,829.764c-0,268.077 129.914,517.63 343.283,672.172c-31.408,-69.056 -47.972,-144.473 -47.972,-221.295c0,-293.191 241.261,-534.452 534.453,-534.452c293.192,0 534.452,241.261 534.452,534.452c0,76.822 -16.564,152.24 -47.973,221.296Zm-4.766,-858.623c47.23,5.056 83.463,45.375 83.463,92.875c-0,47.5 -36.233,87.819 -83.463,92.876c-2.122,0.227 -4.263,0.227 -6.385,-0c-47.23,-5.057 -83.463,-45.376 -83.463,-92.876c0,-47.5 36.233,-87.819 83.463,-92.875c2.122,-0.228 4.263,-0.228 6.385,-0Zm-958.483,-0c47.23,5.056 83.463,45.375 83.463,92.875c0,47.5 -36.233,87.819 -83.463,92.876c-2.122,0.227 -4.262,0.227 -6.384,-0c-47.231,-5.057 -83.464,-45.376 -83.464,-92.876c0,-47.5 36.233,-87.819 83.464,-92.875c2.122,-0.228 4.262,-0.228 6.384,-0Zm412.219,302.669l-0.037,0.003c-0.502,0.053 -0.897,0.482 -0.897,0.995c0,0.142 0.03,0.282 0.101,0.437c-0,0 64.549,111.886 64.574,111.922c0.187,0.258 0.488,0.413 0.81,0.413c0.33,-0 0.638,-0.164 0.834,-0.449c0,-0 64.55,-111.886 64.565,-111.919c0.056,-0.127 0.085,-0.264 0.085,-0.404c0,-0.515 -0.397,-0.944 -0.934,-0.998l-129.101,-0Zm-311.039,324.318c1.715,3.732 2.687,7.877 2.725,12.248c1.801,204.477 170.526,371.723 375.011,371.723c205.733,-0 375.025,-169.293 375.025,-375.025c0,-121.2 -58.754,-234.14 -155.459,-304.023c-3.469,16.021 -9.429,31.518 -17.733,45.839l-64.86,112.424l-0.031,0.053c-28.271,48.775 -80.55,78.898 -136.926,78.898c-56.377,0 -108.655,-30.123 -136.927,-78.898l-0.03,-0.053c-0,-0 -64.86,-112.424 -64.827,-112.366c-8.408,-14.5 -14.398,-30.138 -17.853,-46.305c-95.432,67.776 -154.67,177.16 -158.115,295.485Zm-293.657,-1338.41c-19.21,13.02 -36.107,29.026 -50.088,47.335c45.133,13.71 87.293,35.942 124.156,65.538c58.694,-45.206 122.274,-83.646 189.532,-114.606c-71.843,-54.275 -172.695,-59.094 -249.957,-7.602l-13.534,9.261c-0.037,0.025 -0.073,0.049 -0.109,0.074Zm-95.411,195.428c1.506,21.346 6.165,42.341 13.816,62.292c11.547,-13.539 23.456,-26.767 35.715,-39.668c-15.475,-9.629 -32.125,-17.233 -49.531,-22.624Z" style="fill:#fff;"/></svg>
