<svg width="100%" height="100%" viewBox="0 0 2134 2134" version="1.1" xmlns="http://www.w3.org/2000/svg" xmlns:xlink="http://www.w3.org/1999/xlink" xml:space="preserve" xmlns:serif="http://www.serif.com/" style="fill-rule:evenodd;clip-rule:evenodd;stroke-linejoin:round;stroke-miterlimit:2;"><path d="M1203.66,830.372c-15.804,62.22 -72.259,106.128 -136.455,106.128c-77.233,-0 -140.787,-63.554 -140.787,-140.788c-0,-77.233 63.554,-140.787 140.787,-140.787c77.031,0 140.492,63.22 140.786,140.25c0.199,11.876 -1.259,23.723 -4.331,35.197Zm558.275,69.31c158.152,63.936 266.74,212.718 279.409,382.834l0,703.936c0,29.705 -24.444,54.149 -54.149,54.149c-29.705,0 -54.149,-24.444 -54.149,-54.149l0,-617.84c-12.999,-126.635 -95.3,-236.092 -213.347,-283.74l0,901.58c0,29.705 -24.444,54.149 -54.149,54.149c-29.705,0 -54.149,-24.444 -54.149,-54.149l0,-932.987c-36.825,-6.509 -74.151,-9.771 -111.547,-9.746c-36.913,0.119 -73.537,6.528 -108.298,18.952l0,923.781c0,29.705 -24.443,54.149 -54.149,54.149c-29.705,0 -54.148,-24.444 -54.148,-54.149l-0,-870.174c-79.479,55.165 -152.179,119.505 -216.596,191.688l-0,678.486c-0,29.705 -24.444,54.149 -54.149,54.149c-29.706,0 -54.149,-24.444 -54.149,-54.149l-0,-559.359c-54.149,61.189 -108.298,120.211 -162.447,174.36l-0,384.999c-0,29.705 -24.444,54.149 -54.149,54.149c-29.705,0 -54.149,-24.444 -54.149,-54.149l-0,-290.238c-62.624,51.174 -137.109,85.809 -216.596,100.717l0,189.521c0,29.705 -24.444,54.149 -54.149,54.149c-29.705,0 -54.149,-24.444 -54.149,-54.149l0,-188.98c-60.966,-8.348 -117.799,-35.629 -162.447,-77.974l0,266.954c0,29.705 -24.443,54.149 -54.149,54.149c-29.705,0 -54.149,-24.444 -54.149,-54.149l0,-649.787c0,-157.032 99.634,-324.894 379.043,-324.894c117.493,2.698 229.581,50.403 312.981,133.206c38.221,33.914 74.384,70.078 108.298,108.298c178.692,-200.892 364.423,-403.41 607.551,-403.41l32.49,0c-9.923,-16.345 -15.342,-35.031 -15.703,-54.149c-0,-59.41 48.887,-108.298 108.297,-108.298c9.327,0.121 18.603,1.394 27.616,3.791c-14.876,-84.953 -48.347,-165.577 -98.009,-236.09c-4.293,8.16 -9.767,15.641 -16.245,22.202c-6.48,6.489 -13.758,12.13 -21.659,16.786c-42.421,24.982 -96.793,18.046 -131.582,-16.786c-20.328,-20.306 -31.763,-47.889 -31.763,-76.621c0,-28.732 11.435,-56.316 31.763,-76.621c6.56,-6.478 14.041,-11.952 22.201,-16.245c-70.4,-49.397 -150.828,-82.678 -235.548,-97.468c2.396,9.014 3.669,18.29 3.79,27.616c-0.014,9.121 -1.104,18.209 -3.249,27.075c-12.032,48.027 -55.54,81.98 -105.051,81.98c-59.411,0 -108.298,-48.887 -108.298,-108.298c-0,-0.252 0,-0.504 0.002,-0.757c0.121,-9.326 1.394,-18.602 3.791,-27.616c-84.953,14.877 -165.578,48.347 -236.09,98.01c8.16,4.293 15.641,9.767 22.201,16.244c6.49,6.48 12.131,13.759 16.786,21.66c9.506,16.463 14.511,35.141 14.511,54.151c-0,59.164 -48.483,107.94 -107.647,108.296c-28.852,0.023 -56.55,-11.486 -76.891,-31.948c-6.478,-6.561 -11.952,-14.042 -16.245,-22.201c-49.013,70.494 -81.922,150.916 -96.385,235.548c17.757,-4.585 36.391,-4.585 54.149,-0c48.027,12.032 81.981,55.54 81.981,105.052c-0,59.41 -48.888,108.298 -108.298,108.298c-0.253,-0 -0.505,-0.001 -0.758,-0.003c-9.904,-0.037 -19.751,-1.496 -29.24,-4.332c0.281,2.245 0.421,4.506 0.421,6.769c0,29.936 -24.634,54.57 -54.57,54.57c-27.391,-0 -50.752,-20.623 -54.149,-47.802c-6.486,-38.573 -9.746,-77.619 -9.746,-116.733c-0,-386.168 317.768,-703.937 703.936,-703.937c385.877,0 703.514,317.29 703.936,703.167c-0.172,35.008 -3.069,69.949 -8.664,104.507Zm-1236.76,311.898c-17.849,-3.435 -35.973,-5.248 -54.149,-5.414c-36.882,-0.055 -73.506,6.171 -108.298,18.41l0,166.238c0,29.705 -24.444,54.148 -54.149,54.148c-29.705,0 -54.149,-24.443 -54.149,-54.148l0,-96.927c-6.165,7.789 -11.603,16.126 -16.244,24.908c-20.68,28.695 -30.474,63.839 -27.616,99.093c0.306,4.507 0.306,9.03 -0,13.537c1.01,4.58 2.276,9.099 3.79,13.537c17.626,96.547 104.446,166.188 202.517,162.447c122.918,0 239.339,-99.634 357.925,-225.801c-30.482,-38.052 -64.774,-72.889 -102.342,-103.966c-12.996,-9.205 -25.991,-17.869 -38.987,-25.45l-0,138.622c-0,29.705 -24.444,54.148 -54.149,54.148c-29.705,0 -54.149,-24.443 -54.149,-54.148l0,-179.234Z" style="fill:#fff;"/></svg>
