<svg
    width="100%"
    height="100%"
    viewBox="0 0 67.733332 67.733335"
    version="1.1"
    id="date"
    xmlns="http://www.w3.org/2000/svg"
    xmlns:svg="http://www.w3.org/2000/svg">
    <path
        style="fill:#ffffff;"
        d="M 10.90225,65.351394 C 6.8316779,64.815735 3.6702025,61.999123 2.5898196,57.945709 L 2.3111842,56.900316 V 36.336764 15.773211 L 2.5898196,14.727818 C 3.561982,11.080429 6.1275755,8.4991524 9.7214733,7.5525689 10.477295,7.3534958 11.23595,7.2762381 12.949405,7.2238524 l 2.239893,-0.068481 0.05134,-1.5575592 c 0.05377,-1.6311929 0.130879,-1.908622 0.702043,-2.5257474 0.48737,-0.526589 0.988927,-0.7390197 1.744853,-0.7390197 0.755926,0 1.257483,0.2124307 1.744853,0.7390197 0.572158,0.6181997 0.648246,0.8935896 0.702577,2.5428748 l 0.05187,1.5746864 h 5.528509 5.528509 l 0.05187,-1.5746864 c 0.05433,-1.6492852 0.130419,-1.9246751 0.702577,-2.5428748 0.48737,-0.526589 0.988926,-0.7390197 1.744852,-0.7390197 0.755927,0 1.257483,0.2124307 1.744853,0.7390197 0.572158,0.6181997 0.648246,0.8935896 0.702577,2.5428748 l 0.05188,1.5746864 h 5.590261 5.590262 l 0.05187,-1.5746864 c 0.05433,-1.6492852 0.130419,-1.9246751 0.702577,-2.5428748 0.48737,-0.526589 0.988927,-0.7390197 1.744853,-0.7390197 0.755926,0 1.257483,0.2124307 1.744852,0.7390197 0.571174,0.617137 0.648277,0.8945443 0.70205,2.5259298 l 0.05135,1.5577416 2.301639,0.067857 c 1.78224,0.052544 2.524605,0.126683 3.289678,0.328534 3.565176,0.9406084 6.109753,3.4795648 7.125279,7.1095398 0.272918,0.975541 0.276469,1.088802 0.280712,8.954099 0.0024,4.381334 -0.03819,8.117879 -0.09012,8.303434 -0.12247,0.437632 -0.764563,1.165068 -1.251596,1.417951 -0.461802,0.23978 -1.621111,0.262951 -2.050907,0.04099 -0.439725,-0.22709 -0.975842,-0.747373 -1.214665,-1.17879 -0.183268,-0.331066 -0.211749,-1.218665 -0.267489,-8.336575 -0.05513,-7.040274 -0.08621,-8.025422 -0.267428,-8.476846 -0.592619,-1.476254 -1.67235,-2.508173 -3.159887,-3.019961 -0.565688,-0.194626 -1.038751,-0.236151 -2.690275,-0.236151 h -2.00389 l -0.05188,1.574687 c -0.05433,1.649286 -0.130418,1.924675 -0.702577,2.542875 -0.487369,0.526589 -0.988926,0.739019 -1.744852,0.739019 -0.755926,0 -1.257483,-0.21243 -1.744853,-0.739019 -0.572158,-0.6182 -0.648246,-0.893589 -0.702577,-2.542875 l -0.05187,-1.574687 h -5.590262 -5.590261 l -0.05188,1.574687 c -0.05433,1.649286 -0.130419,1.924675 -0.702577,2.542875 -0.48737,0.526589 -0.988926,0.739019 -1.744853,0.739019 -0.755926,0 -1.257482,-0.21243 -1.744852,-0.739019 -0.572158,-0.6182 -0.648246,-0.893589 -0.702577,-2.542875 l -0.05187,-1.574687 h -5.528509 -5.528509 l -0.05187,1.574687 c -0.05433,1.649286 -0.130419,1.924675 -0.702577,2.542875 -0.48737,0.526589 -0.988927,0.739019 -1.744853,0.739019 -0.755926,0 -1.257483,-0.21243 -1.744853,-0.739019 -0.572158,-0.6182 -0.648245,-0.893589 -0.702576,-2.542875 l -0.05187,-1.574687 h -1.942138 c -1.58521,0 -2.067266,0.04305 -2.622984,0.234245 -1.5770613,0.542589 -2.6560068,1.620308 -3.1973329,3.193701 -0.2287504,0.664874 -0.2361506,1.316013 -0.2361506,20.778999 0,19.462986 0.0074,20.114124 0.2361506,20.778999 0.511676,1.487213 1.5418444,2.565327 3.0199619,3.160516 0.457932,0.184394 1.584266,0.212067 10.885189,0.267429 11.412724,0.06793 10.693634,0.01622 11.439981,0.822631 0.499421,0.539611 0.642907,0.907296 0.642907,1.647465 0,0.74017 -0.143486,1.107855 -0.642907,1.647466 -0.747848,0.808028 -0.05242,0.759162 -11.069466,0.777829 -5.50214,0.0093 -10.361776,-0.03015 -10.799191,-0.0877 z m 38.103924,-0.0067 c -3.329716,-0.320076 -6.519962,-1.849352 -8.970898,-4.300288 -5.839409,-5.839409 -5.839409,-15.169669 0,-21.009079 5.016721,-5.01672 12.77743,-5.80844 18.71761,-1.909504 1.431657,0.939691 3.261282,2.769317 4.200973,4.200973 3.898936,5.940181 3.107216,13.70089 -1.909504,18.71761 -2.527472,2.527472 -5.622552,3.977 -9.207739,4.312286 -0.747204,0.06988 -1.441918,0.119587 -1.54381,0.110464 -0.101891,-0.0091 -0.680876,-0.06423 -1.286632,-0.122462 z m 3.528432,-4.979343 c 1.890163,-0.400624 3.553674,-1.288637 4.963379,-2.649546 1.981527,-1.912937 3.041432,-4.413669 3.041432,-7.175938 0,-2.673928 -0.95166,-5.019045 -2.823663,-6.958169 -1.912937,-1.981532 -4.413669,-3.041437 -7.175938,-3.041437 -2.762269,0 -5.263001,1.059905 -7.175939,3.041432 -1.872002,1.939124 -2.823662,4.284241 -2.823662,6.958169 0,2.673927 0.95166,5.019044 2.823662,6.958169 1.374315,1.423593 3.200516,2.443332 5.125721,2.862173 1.003349,0.218285 3.02725,0.220858 4.045008,0.0051 z m -2.303552,-7.41017 c -0.06793,-0.02592 -0.275323,-0.08057 -0.460878,-0.121462 -0.419064,-0.09234 -1.149918,-0.722249 -1.428879,-1.231523 -0.18162,-0.331566 -0.209825,-0.798106 -0.209825,-3.470678 0,-1.698191 0.04248,-3.239439 0.09441,-3.424994 0.12247,-0.437632 0.764563,-1.165068 1.251597,-1.41795 0.461801,-0.239781 1.62111,-0.262952 2.050906,-0.04099 0.169525,0.08755 0.466027,0.305226 0.658893,0.483728 0.641756,0.593959 0.743457,0.935786 0.798917,2.685233 l 0.05134,1.619657 0.898082,0.06792 c 0.989034,0.0748 1.44122,0.259422 1.930683,0.788272 0.499421,0.539612 0.642907,0.907296 0.642907,1.647466 0,0.740169 -0.143486,1.107854 -0.642907,1.647465 -0.646683,0.698722 -0.874271,0.753068 -3.288663,0.785299 -1.222697,0.01632 -2.278664,0.0085 -2.346591,-0.01745 z M 17.378772,52.087464 c -0.06793,-0.02419 -0.275323,-0.07743 -0.460878,-0.118322 -0.425058,-0.09366 -1.157394,-0.729714 -1.41795,-1.231524 -0.239781,-0.461802 -0.262952,-1.621111 -0.04099,-2.050906 0.466068,-0.902474 1.255907,-1.397913 2.22858,-1.397913 0.972673,0 1.762513,0.495439 2.22858,1.397913 0.219717,0.425448 0.199002,1.589428 -0.03627,2.038363 -0.212759,0.405971 -0.755162,0.949012 -1.142516,1.143862 -0.280899,0.141301 -1.172631,0.284739 -1.358553,0.218527 z m 10.744919,0 c -0.06793,-0.02419 -0.275323,-0.07743 -0.460878,-0.118322 -0.425058,-0.09366 -1.157394,-0.729714 -1.41795,-1.231524 -0.239781,-0.461802 -0.262952,-1.621111 -0.04099,-2.050906 0.466068,-0.902474 1.255907,-1.397913 2.22858,-1.397913 0.972674,0 1.762513,0.495439 2.228581,1.397913 0.219716,0.425448 0.199002,1.589428 -0.03627,2.038363 -0.212759,0.405971 -0.755161,0.949012 -1.142516,1.143862 -0.280899,0.141301 -1.172631,0.284739 -1.358553,0.218527 z M 17.378772,41.342545 c -0.06793,-0.02419 -0.275323,-0.07744 -0.460878,-0.118323 -0.425058,-0.09366 -1.157394,-0.729713 -1.41795,-1.231523 -0.239781,-0.461802 -0.262952,-1.621111 -0.04099,-2.050906 0.466068,-0.902475 1.255907,-1.397913 2.22858,-1.397913 0.972673,0 1.762513,0.495438 2.22858,1.397913 0.219717,0.425448 0.199002,1.589428 -0.03627,2.038363 -0.212759,0.405971 -0.755162,0.949012 -1.142516,1.143862 -0.280899,0.141301 -1.172631,0.284739 -1.358553,0.218527 z m 10.744919,0 c -0.06793,-0.02419 -0.275323,-0.07744 -0.460878,-0.118323 -0.425058,-0.09366 -1.157394,-0.729713 -1.41795,-1.231523 -0.239781,-0.461802 -0.262952,-1.621111 -0.04099,-2.050906 0.466068,-0.902475 1.255907,-1.397913 2.22858,-1.397913 0.972674,0 1.762513,0.495438 2.228581,1.397913 0.219716,0.425448 0.199002,1.589428 -0.03627,2.038363 -0.212759,0.405971 -0.755161,0.949012 -1.142516,1.143862 -0.280899,0.141301 -1.172631,0.284739 -1.358553,0.218527 z M 17.378772,30.597626 c -0.06793,-0.02419 -0.275323,-0.07744 -0.460878,-0.118323 -0.425058,-0.09366 -1.157394,-0.729713 -1.41795,-1.231523 -0.239781,-0.461802 -0.262952,-1.621111 -0.04099,-2.050906 0.466068,-0.902475 1.255907,-1.397913 2.22858,-1.397913 0.972673,0 1.762513,0.495438 2.22858,1.397913 0.219717,0.425448 0.199002,1.589428 -0.03627,2.038363 -0.212759,0.405971 -0.755162,0.949012 -1.142516,1.143862 -0.280899,0.1413 -1.172631,0.284739 -1.358553,0.218527 z m 10.744919,0 c -0.06793,-0.02419 -0.275323,-0.07744 -0.460878,-0.118323 -0.425058,-0.09366 -1.157394,-0.729713 -1.41795,-1.231523 -0.239781,-0.461802 -0.262952,-1.621111 -0.04099,-2.050906 0.466068,-0.902475 1.255907,-1.397913 2.22858,-1.397913 0.972674,0 1.762513,0.495438 2.228581,1.397913 0.219716,0.425448 0.199002,1.589428 -0.03627,2.038363 -0.212759,0.405971 -0.755161,0.949012 -1.142516,1.143862 -0.280899,0.1413 -1.172631,0.284739 -1.358553,0.218527 z m 10.744919,0 c -0.06793,-0.02419 -0.275323,-0.07744 -0.460878,-0.118323 -0.425057,-0.09366 -1.157394,-0.729713 -1.41795,-1.231523 -0.239781,-0.461802 -0.262951,-1.621111 -0.04099,-2.050906 0.466068,-0.902475 1.255907,-1.397913 2.22858,-1.397913 0.972674,0 1.762513,0.495438 2.228581,1.397913 0.219716,0.425448 0.199002,1.589428 -0.03627,2.038363 -0.212759,0.405971 -0.755161,0.949012 -1.142516,1.143862 -0.280899,0.1413 -1.172631,0.284739 -1.358553,0.218527 z m 10.74492,0 c -0.06793,-0.02419 -0.275323,-0.07744 -0.460878,-0.118323 -0.425058,-0.09366 -1.157395,-0.729713 -1.417951,-1.231523 -0.23978,-0.461802 -0.262951,-1.621111 -0.04099,-2.050906 0.466068,-0.902475 1.255907,-1.397913 2.228581,-1.397913 0.972673,0 1.762512,0.495438 2.22858,1.397913 0.219716,0.425448 0.199002,1.589428 -0.03627,2.038363 -0.21276,0.405971 -0.755162,0.949012 -1.142516,1.143862 -0.2809,0.1413 -1.172632,0.284739 -1.358553,0.218527 z"
        id="date" />
</svg>
