<svg viewBox="0 0 68 68" xml:space="preserve" fill-rule="evenodd" clip-rule="evenodd" stroke-linejoin="round" stroke-miterlimit="2"><path d="M24 23.5c1 0 1.8-.3 2.5-1s1-1.5 1-2.5-.3-1.8-1-2.5-1.5-1-2.5-1-1.8.3-2.5 1-1 1.5-1 2.5.3 1.8 1 2.5 1.5 1 2.5 1ZM24 44a66.5 66.5 0 0 1-12-12.7c-2.7-4-4-7.6-4-10.9 0-5 1.6-9 4.8-12C16 5.4 19.8 4 24 4c4.2 0 8 1.5 11.2 4.4 3.2 3 4.8 7 4.8 12 0 3.3-1.3 7-4 10.9-2.6 3.9-6.6 8.1-12 12.7Z" fill="#fff" fill-rule="nonzero" transform="translate(-5.6 -5.6) scale(1.64621)"/></svg>