<svg
    width="100%"
    height="100%"
    viewBox="0 0 67.733332 67.733335"
    version="1.1"
    id="docs"
    xmlns="http://www.w3.org/2000/svg"
    xmlns:svg="http://www.w3.org/2000/svg">
    <path
        style="fill:#ffffff;"
        d="M 15.075113,63.730864 C 11.282378,63.20635 8.1231453,60.267831 7.2356315,56.439071 7.0818402,55.775611 7.0592398,52.880637 7.0592398,33.844454 c 0,-19.036183 0.0226,-21.931158 0.1763917,-22.594618 C 7.9117211,8.3331664 9.8067794,5.9844569 12.479113,4.751137 14.38775,3.8702742 12.987736,3.9329268 30.762567,3.9329268 c 15.102777,0 15.96073,0.011072 16.682554,0.2152828 3.523492,0.996831 6.045707,3.606552 6.833609,7.0706944 0.166193,0.730694 0.190625,1.874815 0.190625,8.926801 0,7.720548 -0.01014,8.108459 -0.222748,8.523041 -0.928382,1.810311 -3.417122,1.691918 -4.265962,-0.202938 -0.09457,-0.211107 -0.151534,-2.679093 -0.193357,-8.377145 L 49.727998,12.010795 49.412389,11.33733 C 48.949252,10.349062 48.08111,9.4899906 47.063594,9.0130763 L 46.215881,8.615749 H 30.762567 15.309254 L 14.52215,8.9886164 c -1.049005,0.4969352 -1.87258,1.2857186 -2.345555,2.2464656 l -0.379458,0.77079 v 21.838582 21.838582 l 0.379458,0.77079 c 0.472975,0.960747 1.29655,1.74953 2.345555,2.246465 l 0.787104,0.372868 4.799892,0.05853 c 4.174042,0.0509 4.845688,0.0838 5.151105,0.252286 1.395867,0.770047 1.657795,2.737207 0.507345,3.810328 -0.649955,0.606269 -0.795436,0.621537 -5.742492,0.602668 -2.529329,-0.0096 -4.756825,-0.0394 -4.949991,-0.06611 z m 18.67954,-0.171403 c -0.824026,-0.430626 -1.216874,-1.014442 -1.268969,-1.885836 -0.03939,-0.658929 0.09048,-1.167396 1.380844,-5.406207 0.78338,-2.573378 1.52108,-4.865035 1.639335,-5.092569 0.303825,-0.58459 13.720446,-13.918713 14.483936,-14.394873 0.337156,-0.210273 0.995678,-0.519964 1.463382,-0.688204 0.740947,-0.266529 1.031137,-0.30552 2.255215,-0.303024 1.247393,0.0025 1.503255,0.0396 2.282876,0.330633 2.916613,1.088773 4.682822,3.586543 4.682822,6.622435 0,1.218606 -0.214303,2.115983 -0.782819,3.277976 -0.408976,0.83591 -0.764128,1.212942 -7.4037,7.859821 l -6.974118,6.981792 -0.760958,0.242843 c -1.858074,0.59296 -9.363668,2.618877 -9.892462,2.670182 -0.460655,0.04469 -0.696135,-0.0011 -1.105384,-0.214969 z m 7.03933,-6.190045 2.143922,-0.591573 4.243808,-4.236986 c 2.334094,-2.330343 4.243807,-4.315547 4.243807,-4.411566 0,-0.182044 -2.905842,-3.163134 -3.08329,-3.163134 -0.121938,0 -8.517847,8.254726 -8.675441,8.529557 -0.11557,0.201541 -1.353171,4.194988 -1.353171,4.366359 0,0.170302 0.277451,0.115193 2.480365,-0.492657 z M 55.312117,44.410072 c 0.468358,-0.500592 0.679155,-1.01803 0.679155,-1.667106 0,-2.144293 -2.533605,-3.109134 -4.030322,-1.53482 l -0.342602,0.360362 1.566257,1.581754 c 0.861441,0.869965 1.624766,1.581754 1.696276,1.581754 0.07151,0 0.265568,-0.144875 0.431236,-0.321944 z M 17.711525,41.073561 c -0.283564,-0.144875 -0.676669,-0.465856 -0.873568,-0.71329 -0.330361,-0.415151 -0.357998,-0.520505 -0.357998,-1.364713 0,-0.844207 0.02764,-0.949561 0.357998,-1.364712 0.196899,-0.247435 0.590004,-0.568415 0.873568,-0.71329 l 0.515569,-0.263409 h 7.794116 7.794115 l 0.515569,0.263409 c 0.283564,0.144875 0.676669,0.465855 0.873568,0.71329 0.330361,0.415151 0.357998,0.520505 0.357998,1.364712 0,0.844208 -0.02764,0.949562 -0.357998,1.364713 -0.196899,0.247434 -0.590004,0.568415 -0.873568,0.71329 L 33.815325,41.33697 H 26.02121 18.227094 Z m 0,-9.365645 c -0.283564,-0.144875 -0.676669,-0.465855 -0.873568,-0.71329 -0.330361,-0.415151 -0.357998,-0.520505 -0.357998,-1.364712 0,-0.844208 0.02764,-0.949562 0.357998,-1.364713 0.196899,-0.247434 0.590004,-0.568415 0.873568,-0.71329 l 0.515569,-0.263408 h 12.505504 c 11.022557,0 12.556928,0.02149 12.93916,0.181193 1.91732,0.801107 1.91732,3.519329 0,4.320435 -0.382232,0.159708 -1.916603,0.181194 -12.93916,0.181194 H 18.227094 Z m 0,-9.365644 c -0.283564,-0.144875 -0.676669,-0.465856 -0.873568,-0.71329 -0.330361,-0.415151 -0.357998,-0.520505 -0.357998,-1.364713 0,-0.844207 0.02764,-0.949561 0.357998,-1.364712 0.196899,-0.247435 0.590004,-0.568415 0.873568,-0.71329 l 0.515569,-0.263409 h 12.505504 c 11.022557,0 12.556928,0.02149 12.93916,0.181194 1.91732,0.801107 1.91732,3.519328 0,4.320435 -0.382232,0.159708 -1.916603,0.181193 -12.93916,0.181193 H 18.227094 Z"
        id="docs" />
</svg>
