<?xml version="1.0" encoding="UTF-8" standalone="no"?>
<!DOCTYPE svg PUBLIC "-//W3C//DTD SVG 1.1//EN" "http://www.w3.org/Graphics/SVG/1.1/DTD/svg11.dtd">
<svg width="100%" height="100%" viewBox="0 0 5000 5000" version="1.1" xmlns="http://www.w3.org/2000/svg" xmlns:xlink="http://www.w3.org/1999/xlink" xml:space="preserve" xmlns:serif="http://www.serif.com/" style="fill-rule:evenodd;clip-rule:evenodd;stroke-linejoin:round;stroke-miterlimit:2;">
    <g id="ArtBoard2" transform="matrix(1,0,0,1,-5208.33,0)">
        <rect x="5208.33" y="0" width="5000" height="5000" style="fill:none;"/>
        <g transform="matrix(1.53443,0,0,1.53443,-4118.74,-221.326)">
            <path d="M7366.3,524.278C6926.07,644.597 6579.07,991.59 6458.74,1431.83L6139.16,1751.41C6126.96,1763.62 6126.96,1783.4 6139.16,1795.61L6458.74,2115.18C6493.11,2240.95 6545.97,2359.1 6614.23,2466.53L6614.23,2867.07L7014.67,2867.07C7122.19,2935.41 7240.43,2988.34 7366.3,3022.74L7685.69,3342.13C7697.9,3354.34 7717.68,3354.34 7729.89,3342.13L8049.15,3022.88C8489.79,2902.65 8837.12,2555.31 8957.34,2114.68L9276.42,1795.61C9288.62,1783.4 9288.62,1763.62 9276.42,1751.41L8957.34,1432.33C8922.91,1306.17 8869.87,1187.66 8801.35,1079.92L8801.35,679.947L8401.27,679.947C8293.66,611.527 8175.22,558.537 8049.15,524.141L7729.89,204.882C7717.68,192.678 7697.9,192.678 7685.69,204.882L7366.3,524.278ZM7707.79,3275.84L7935.16,3048.47C7861.33,3061.55 7785.44,3068.37 7707.97,3068.37C7630.29,3068.37 7554.19,3061.52 7480.34,3048.39L7707.79,3275.84ZM7441.8,2977L7707.79,2711.01L7973.84,2977.07C7888.22,2995.93 7799.25,3005.87 7707.97,3005.87C7616.62,3005.87 7527.59,2995.91 7441.8,2977ZM8044.46,587.723L7729.89,902.294C7717.68,914.498 7697.9,914.498 7685.69,902.294L7371.2,587.803C6961.5,704.077 6638.39,1027.25 6522.19,1437.02L6836.57,1751.41C6848.78,1763.62 6848.78,1783.4 6836.57,1795.61L6522.19,2109.99C6551.88,2214.71 6595.09,2313.76 6649.81,2405.18L7076.12,2405.18L7076.12,2831.56C7167.47,2886.27 7266.5,2929.49 7371.2,2959.21L7685.69,2644.72C7697.9,2632.52 7717.68,2632.52 7729.89,2644.72L8044.46,2959.29C8454.21,2843.08 8777.34,2520.01 8893.68,2110.28L8579,1795.61C8566.8,1783.4 8566.8,1763.62 8579,1751.41L8893.68,1436.74C8863.98,1332.12 8820.8,1233.14 8766.13,1141.84L8339.46,1141.84L8339.46,715.239C8248.08,660.567 8149.07,617.394 8044.46,587.723ZM7509.83,1295.6L7261.13,1295.6C7243.87,1295.6 7229.88,1309.59 7229.88,1326.85L7229.88,1575.55L7054.03,1751.41C7041.82,1763.62 7041.82,1783.4 7054.03,1795.61L7229.88,1971.46L7229.88,2220.16C7229.88,2237.42 7243.87,2251.41 7261.13,2251.41L7509.83,2251.41L7685.69,2427.27C7697.9,2439.48 7717.68,2439.48 7729.89,2427.27L7905.74,2251.41L8154.45,2251.41C8171.7,2251.41 8185.7,2237.42 8185.7,2220.16L8185.7,1971.46L8361.55,1795.61C8373.76,1783.4 8373.76,1763.62 8361.55,1751.41L8185.7,1575.55L8185.7,1326.85C8185.7,1309.59 8171.7,1295.6 8154.45,1295.6L7905.74,1295.6L7729.89,1119.74C7717.68,1107.54 7697.9,1107.54 7685.69,1119.74L7509.83,1295.6ZM7292.38,2188.91L7447.33,2188.91L7292.38,2033.96L7292.38,2188.91ZM8123.2,2033.96L7968.24,2188.91L8123.2,2188.91L8123.2,2033.96ZM8645.3,1773.51L8911.46,1507.34C8930.37,1593.12 8940.33,1682.16 8940.33,1773.51C8940.33,1864.85 8930.37,1953.89 8911.46,2039.68L8645.3,1773.51ZM6504.41,1507.64L6770.28,1773.51L6504.41,2039.38C6485.55,1953.76 6475.61,1864.79 6475.61,1773.51C6475.61,1682.23 6485.55,1593.26 6504.41,1507.64ZM6205.45,1773.51L6433.09,2001.14C6419.96,1927.29 6413.11,1851.19 6413.11,1773.51C6413.11,1695.83 6419.96,1619.73 6433.09,1545.88L6205.45,1773.51ZM8982.93,1546.32C8996.02,1620.15 9002.83,1696.04 9002.83,1773.51C9002.83,1850.98 8996.02,1926.87 8982.93,2000.7L9210.12,1773.51L8982.93,1546.32ZM7447.33,1358.1L7292.38,1513.05L7292.38,1358.1L7292.38,1358.1L7447.33,1358.1ZM7968.24,1358.1L8123.2,1513.05L8123.2,1358.1L7968.24,1358.1ZM7973.84,569.95L7707.79,836.002L7441.8,570.015C7527.59,551.104 7616.62,541.145 7707.97,541.145C7799.25,541.145 7888.22,551.09 7973.84,569.95ZM7480.34,498.625C7554.19,485.5 7630.29,478.645 7707.97,478.645C7785.44,478.645 7861.33,485.462 7935.16,498.547L7707.79,271.173L7480.34,498.625Z" style="fill:rgb(38,96,86);"/>
        </g>
    </g>
</svg>
