<?xml version="1.0" encoding="UTF-8" standalone="no"?>
<!DOCTYPE svg PUBLIC "-//W3C//DTD SVG 1.1//EN" "http://www.w3.org/Graphics/SVG/1.1/DTD/svg11.dtd">
<svg width="100%" height="100%" viewBox="0 0 5000 5000" version="1.1" xmlns="http://www.w3.org/2000/svg" xmlns:xlink="http://www.w3.org/1999/xlink" xml:space="preserve" xmlns:serif="http://www.serif.com/" style="fill-rule:evenodd;clip-rule:evenodd;stroke-linejoin:round;stroke-miterlimit:2;">
    <g id="ArtBoard2" transform="matrix(1,0,0,1,-5208.33,0)">
        <rect x="5208.33" y="0" width="5000" height="5000" style="fill:none;"/>
        <g transform="matrix(1,0,0,1,-0.407969,2029.39)">
            <g transform="matrix(16.3188,0,0,16.3188,-91695.2,-33137.6)">
                <path d="M5953.31,2154.15L5970.96,2154.15L5970.96,2148.95L5953.31,2148.95L5953.31,2154.15ZM5953.31,2124.35L5970.96,2124.35L5970.96,2119.15L5953.31,2119.15L5953.31,2124.35ZM5953.31,2137.95L5969.96,2137.95L5969.96,2132.85L5953.31,2132.85L5953.31,2137.95ZM5949.66,2119.15L5949.66,2154.15L5955.46,2154.15L5955.46,2119.15L5949.66,2119.15Z" style="fill:rgb(38,96,86);fill-rule:nonzero;"/>
                <path d="M5996.36,2119.15L5989.66,2130.95L5983.11,2119.15L5975.96,2119.15L5986.36,2135.95L5974.71,2154.15L5981.86,2154.15L5989.61,2140.7L5997.11,2154.15L6004.31,2154.15L5992.96,2135.95L6003.56,2119.15L5996.36,2119.15Z" style="fill:rgb(38,96,86);fill-rule:nonzero;"/>
                <path d="M6008.61,2119.15L6008.61,2154.15L6014.51,2154.15L6014.51,2119.15L6008.61,2119.15ZM6012.11,2124.35L6019.16,2124.35C6021.19,2124.35 6022.83,2124.82 6024.06,2125.78C6025.29,2126.72 6025.91,2128.13 6025.91,2130C6025.91,2131.87 6025.29,2133.28 6024.06,2134.25C6022.83,2135.22 6021.19,2135.7 6019.16,2135.7L6012.11,2135.7L6012.11,2140.9L6019.16,2140.9C6021.73,2140.9 6023.94,2140.46 6025.81,2139.57C6027.68,2138.69 6029.14,2137.43 6030.19,2135.8C6031.23,2134.17 6031.76,2132.23 6031.76,2130C6031.76,2127.77 6031.23,2125.84 6030.19,2124.22C6029.14,2122.61 6027.68,2121.36 6025.81,2120.47C6023.94,2119.59 6021.73,2119.15 6019.16,2119.15L6012.11,2119.15L6012.11,2124.35Z" style="fill:rgb(38,96,86);fill-rule:nonzero;"/>
                <path d="M6041.16,2154.15L6058.81,2154.15L6058.81,2148.95L6041.16,2148.95L6041.16,2154.15ZM6041.16,2124.35L6058.81,2124.35L6058.81,2119.15L6041.16,2119.15L6041.16,2124.35ZM6041.16,2137.95L6057.81,2137.95L6057.81,2132.85L6041.16,2132.85L6041.16,2137.95ZM6037.51,2119.15L6037.51,2154.15L6043.31,2154.15L6043.31,2119.15L6037.51,2119.15Z" style="fill:rgb(38,96,86);fill-rule:nonzero;"/>
                <path d="M6073.31,2137.45L6084.41,2154.15L6091.56,2154.15L6079.66,2137.45L6073.31,2137.45ZM6066.06,2119.15L6066.06,2154.15L6071.96,2154.15L6071.96,2119.15L6066.06,2119.15ZM6069.56,2124.25L6076.61,2124.25C6077.98,2124.25 6079.16,2124.48 6080.16,2124.95C6081.16,2125.42 6081.94,2126.08 6082.51,2126.95C6083.08,2127.82 6083.36,2128.88 6083.36,2130.15C6083.36,2131.38 6083.08,2132.44 6082.51,2133.32C6081.94,2134.21 6081.16,2134.88 6080.16,2135.32C6079.16,2135.78 6077.98,2136 6076.61,2136L6069.56,2136L6069.56,2140.9L6076.86,2140.9C6079.43,2140.9 6081.64,2140.45 6083.51,2139.55C6085.38,2138.65 6086.84,2137.38 6087.89,2135.75C6088.94,2134.12 6089.46,2132.2 6089.46,2130C6089.46,2127.8 6088.94,2125.89 6087.89,2124.28C6086.84,2122.66 6085.38,2121.4 6083.51,2120.5C6081.64,2119.6 6079.43,2119.15 6076.86,2119.15L6069.56,2119.15L6069.56,2124.25Z" style="fill:rgb(38,96,86);fill-rule:nonzero;"/>
                <rect x="6095.81" y="2119.15" width="6" height="35" style="fill:rgb(38,96,86);fill-rule:nonzero;"/>
                <path d="M6113.21,2154.15L6130.86,2154.15L6130.86,2148.95L6113.21,2148.95L6113.21,2154.15ZM6113.21,2124.35L6130.86,2124.35L6130.86,2119.15L6113.21,2119.15L6113.21,2124.35ZM6113.21,2137.95L6129.86,2137.95L6129.86,2132.85L6113.21,2132.85L6113.21,2137.95ZM6109.56,2119.15L6109.56,2154.15L6115.36,2154.15L6115.36,2119.15L6109.56,2119.15Z" style="fill:rgb(38,96,86);fill-rule:nonzero;"/>
                <path d="M6163.66,2119.15L6163.66,2142.65L6138.11,2117.4L6138.11,2154.15L6143.91,2154.15L6143.91,2130.65L6169.46,2155.9L6169.46,2119.15L6163.66,2119.15Z" style="fill:rgb(38,96,86);fill-rule:nonzero;"/>
                <path d="M6181.66,2136.65C6181.66,2134.15 6182.22,2131.97 6183.34,2130.12C6184.45,2128.28 6185.91,2126.84 6187.71,2125.82C6189.51,2124.81 6191.48,2124.3 6193.61,2124.3C6195.28,2124.3 6196.78,2124.52 6198.14,2124.95C6199.49,2125.38 6200.69,2125.97 6201.76,2126.72C6202.83,2127.47 6203.76,2128.32 6204.56,2129.25L6204.56,2122.25C6203.13,2121.02 6201.55,2120.08 6199.84,2119.45C6198.12,2118.82 6195.98,2118.5 6193.41,2118.5C6190.84,2118.5 6188.45,2118.94 6186.24,2119.82C6184.02,2120.71 6182.09,2121.96 6180.46,2123.57C6178.83,2125.19 6177.55,2127.11 6176.64,2129.32C6175.72,2131.54 6175.26,2133.98 6175.26,2136.65C6175.26,2139.28 6175.72,2141.71 6176.64,2143.93C6177.55,2146.14 6178.83,2148.07 6180.46,2149.7C6182.09,2151.33 6184.02,2152.58 6186.24,2153.45C6188.45,2154.32 6190.84,2154.75 6193.41,2154.75C6195.98,2154.75 6198.12,2154.43 6199.84,2153.8C6201.55,2153.17 6203.13,2152.25 6204.56,2151.05L6204.56,2144C6203.76,2144.97 6202.83,2145.82 6201.76,2146.57C6200.69,2147.32 6199.49,2147.92 6198.14,2148.35C6196.78,2148.78 6195.28,2149 6193.61,2149C6191.48,2149 6189.51,2148.48 6187.71,2147.45C6185.91,2146.42 6184.45,2144.97 6183.34,2143.12C6182.22,2141.28 6181.66,2139.12 6181.66,2136.65Z" style="fill:rgb(38,96,86);fill-rule:nonzero;"/>
                <path d="M6215.46,2154.15L6233.11,2154.15L6233.11,2148.95L6215.46,2148.95L6215.46,2154.15ZM6215.46,2124.35L6233.11,2124.35L6233.11,2119.15L6215.46,2119.15L6215.46,2124.35ZM6215.46,2137.95L6232.11,2137.95L6232.11,2132.85L6215.46,2132.85L6215.46,2137.95ZM6211.81,2119.15L6211.81,2154.15L6217.61,2154.15L6217.61,2119.15L6211.81,2119.15Z" style="fill:rgb(38,96,86);fill-rule:nonzero;"/>
            </g>
            <g transform="matrix(16.3188,0,0,16.3188,-91695.2,-32367.5)">
                <path d="M5998.36,2119.15L5998.36,2154.15L6016.36,2154.15L6016.36,2150.15L6002.61,2150.15L6002.61,2119.15L5998.36,2119.15Z" style="fill:rgb(38,96,86);fill-rule:nonzero;"/>
                <path d="M6021.86,2136.65C6021.86,2134.02 6022.44,2131.67 6023.59,2129.6C6024.73,2127.53 6026.31,2125.9 6028.31,2124.7C6030.31,2123.5 6032.58,2122.9 6035.11,2122.9C6037.68,2122.9 6039.95,2123.5 6041.94,2124.7C6043.92,2125.9 6045.48,2127.53 6046.64,2129.6C6047.78,2131.67 6048.36,2134.02 6048.36,2136.65C6048.36,2139.28 6047.78,2141.63 6046.64,2143.7C6045.48,2145.77 6043.92,2147.4 6041.94,2148.6C6039.95,2149.8 6037.68,2150.4 6035.11,2150.4C6032.58,2150.4 6030.31,2149.8 6028.31,2148.6C6026.31,2147.4 6024.73,2145.77 6023.59,2143.7C6022.44,2141.63 6021.86,2139.28 6021.86,2136.65ZM6017.36,2136.65C6017.36,2139.18 6017.8,2141.55 6018.69,2143.75C6019.57,2145.95 6020.81,2147.86 6022.41,2149.47C6024.01,2151.09 6025.89,2152.36 6028.06,2153.28C6030.23,2154.19 6032.58,2154.65 6035.11,2154.65C6037.68,2154.65 6040.03,2154.19 6042.19,2153.28C6044.34,2152.36 6046.21,2151.09 6047.81,2149.47C6049.41,2147.86 6050.65,2145.95 6051.53,2143.75C6052.42,2141.55 6052.86,2139.18 6052.86,2136.65C6052.86,2134.08 6052.42,2131.71 6051.53,2129.53C6050.65,2127.34 6049.41,2125.44 6047.81,2123.82C6046.21,2122.21 6044.34,2120.94 6042.19,2120.03C6040.03,2119.11 6037.68,2118.65 6035.11,2118.65C6032.58,2118.65 6030.23,2119.11 6028.06,2120.03C6025.89,2120.94 6024.01,2122.21 6022.41,2123.82C6020.81,2125.44 6019.57,2127.34 6018.69,2129.53C6017.8,2131.71 6017.36,2134.08 6017.36,2136.65Z" style="fill:rgb(38,96,86);fill-rule:nonzero;"/>
                <path d="M6075.11,2140.4L6086.76,2140.4C6086.46,2141.77 6085.98,2143.05 6085.34,2144.25C6084.69,2145.45 6083.86,2146.52 6082.86,2147.45C6081.86,2148.38 6080.67,2149.11 6079.28,2149.62C6077.9,2150.14 6076.34,2150.4 6074.61,2150.4C6072.14,2150.4 6069.91,2149.82 6067.91,2148.65C6065.91,2147.48 6064.32,2145.87 6063.14,2143.8C6061.95,2141.73 6061.36,2139.35 6061.36,2136.65C6061.36,2133.92 6061.95,2131.53 6063.14,2129.47C6064.32,2127.43 6065.91,2125.82 6067.91,2124.65C6069.91,2123.48 6072.14,2122.9 6074.61,2122.9C6077.28,2122.9 6079.59,2123.43 6081.56,2124.47C6083.53,2125.53 6085.06,2126.98 6086.16,2128.85L6089.16,2126.1C6088.16,2124.47 6086.94,2123.1 6085.48,2122C6084.03,2120.9 6082.4,2120.07 6080.59,2119.5C6078.77,2118.93 6076.78,2118.65 6074.61,2118.65C6072.08,2118.65 6069.73,2119.09 6067.56,2119.97C6065.39,2120.86 6063.51,2122.11 6061.91,2123.72C6060.31,2125.34 6059.07,2127.25 6058.19,2129.45C6057.3,2131.65 6056.86,2134.05 6056.86,2136.65C6056.86,2139.25 6057.3,2141.65 6058.19,2143.85C6059.07,2146.05 6060.31,2147.96 6061.91,2149.57C6063.51,2151.19 6065.39,2152.44 6067.56,2153.32C6069.73,2154.21 6072.08,2154.65 6074.61,2154.65C6077.28,2154.65 6079.65,2154.16 6081.73,2153.18C6083.82,2152.19 6085.58,2150.85 6087.01,2149.15C6088.44,2147.45 6089.53,2145.51 6090.26,2143.32C6090.99,2141.14 6091.36,2138.83 6091.36,2136.4L6075.11,2136.4L6075.11,2140.4Z" style="fill:rgb(38,96,86);fill-rule:nonzero;"/>
                <path d="M6113.86,2140.4L6125.51,2140.4C6125.21,2141.77 6124.74,2143.05 6124.09,2144.25C6123.44,2145.45 6122.61,2146.52 6121.61,2147.45C6120.61,2148.38 6119.42,2149.11 6118.03,2149.62C6116.65,2150.14 6115.09,2150.4 6113.36,2150.4C6110.89,2150.4 6108.66,2149.82 6106.66,2148.65C6104.66,2147.48 6103.07,2145.87 6101.89,2143.8C6100.7,2141.73 6100.11,2139.35 6100.11,2136.65C6100.11,2133.92 6100.7,2131.53 6101.89,2129.47C6103.07,2127.43 6104.66,2125.82 6106.66,2124.65C6108.66,2123.48 6110.89,2122.9 6113.36,2122.9C6116.03,2122.9 6118.34,2123.43 6120.31,2124.47C6122.28,2125.53 6123.81,2126.98 6124.91,2128.85L6127.91,2126.1C6126.91,2124.47 6125.69,2123.1 6124.24,2122C6122.78,2120.9 6121.15,2120.07 6119.34,2119.5C6117.52,2118.93 6115.53,2118.65 6113.36,2118.65C6110.83,2118.65 6108.48,2119.09 6106.31,2119.97C6104.14,2120.86 6102.26,2122.11 6100.66,2123.72C6099.06,2125.34 6097.82,2127.25 6096.94,2129.45C6096.05,2131.65 6095.61,2134.05 6095.61,2136.65C6095.61,2139.25 6096.05,2141.65 6096.94,2143.85C6097.82,2146.05 6099.06,2147.96 6100.66,2149.57C6102.26,2151.19 6104.14,2152.44 6106.31,2153.32C6108.48,2154.21 6110.83,2154.65 6113.36,2154.65C6116.03,2154.65 6118.4,2154.16 6120.49,2153.18C6122.57,2152.19 6124.33,2150.85 6125.76,2149.15C6127.19,2147.45 6128.28,2145.51 6129.01,2143.32C6129.74,2141.14 6130.11,2138.83 6130.11,2136.4L6113.86,2136.4L6113.86,2140.4Z" style="fill:rgb(38,96,86);fill-rule:nonzero;"/>
                <path d="M6138.71,2154.15L6156.36,2154.15L6156.36,2150.15L6138.71,2150.15L6138.71,2154.15ZM6138.71,2123.15L6156.36,2123.15L6156.36,2119.15L6138.71,2119.15L6138.71,2123.15ZM6138.71,2137.15L6155.36,2137.15L6155.36,2133.15L6138.71,2133.15L6138.71,2137.15ZM6136.36,2119.15L6136.36,2154.15L6140.61,2154.15L6140.61,2119.15L6136.36,2119.15Z" style="fill:rgb(38,96,86);fill-rule:nonzero;"/>
                <path d="M6170.11,2136.9L6182.11,2154.15L6187.36,2154.15L6174.86,2136.9L6170.11,2136.9ZM6163.86,2119.15L6163.86,2154.15L6168.11,2154.15L6168.11,2119.15L6163.86,2119.15ZM6166.21,2122.9L6173.36,2122.9C6174.86,2122.9 6176.19,2123.17 6177.34,2123.7C6178.49,2124.23 6179.39,2125 6180.03,2126C6180.69,2127 6181.01,2128.22 6181.01,2129.65C6181.01,2131.08 6180.69,2132.3 6180.03,2133.3C6179.39,2134.3 6178.49,2135.07 6177.34,2135.6C6176.19,2136.13 6174.86,2136.4 6173.36,2136.4L6166.21,2136.4L6166.21,2140.15L6173.36,2140.15C6175.63,2140.15 6177.65,2139.72 6179.44,2138.88C6181.22,2138.03 6182.64,2136.81 6183.69,2135.22C6184.74,2133.64 6185.26,2131.78 6185.26,2129.65C6185.26,2127.48 6184.74,2125.62 6183.69,2124.05C6182.64,2122.48 6181.22,2121.28 6179.44,2120.43C6177.65,2119.57 6175.63,2119.15 6173.36,2119.15L6166.21,2119.15L6166.21,2122.9Z" style="fill:rgb(38,96,86);fill-rule:nonzero;"/>
            </g>
            <g transform="matrix(1,0,0,1,3899.91,0)">
                <path d="M6121.61,2468.75L5395.63,2468.75L5395.63,2531.25L6121.61,2531.25L6121.61,2468.75Z" style="fill:rgb(38,96,86);"/>
            </g>
            <g transform="matrix(0.553989,0,0,1,6306.42,-150)">
                <path d="M6121.61,2468.75L5395.63,2468.75L5395.63,2531.25L6121.61,2531.25L6121.61,2468.75Z" style="fill:rgb(38,96,86);"/>
            </g>
            <g transform="matrix(0.553989,0,0,1,6306.42,150)">
                <path d="M6121.61,2468.75L5395.63,2468.75L5395.63,2531.25L6121.61,2531.25L6121.61,2468.75Z" style="fill:rgb(38,96,86);"/>
            </g>
            <g transform="matrix(-1,0,0,1,11517.6,0)">
                <path d="M6121.61,2531.25L5395.63,2531.25L5395.63,2468.75L6121.61,2468.75L6121.61,2531.25Z" style="fill:rgb(38,96,86);"/>
            </g>
            <g transform="matrix(-0.553989,0,0,1,9111.06,-150)">
                <path d="M6121.61,2531.25L5395.63,2531.25L5395.63,2468.75L6121.61,2468.75L6121.61,2531.25Z" style="fill:rgb(38,96,86);"/>
            </g>
            <g transform="matrix(-0.553989,0,0,1,9111.06,150)">
                <path d="M6121.61,2531.25L5395.63,2531.25L5395.63,2468.75L6121.61,2468.75L6121.61,2531.25Z" style="fill:rgb(38,96,86);"/>
            </g>
        </g>
        <g transform="matrix(1.00209,0,0,1.00209,-15.7576,-77.7024)">
            <path d="M7366.3,524.278C6926.07,644.597 6579.07,991.59 6458.74,1431.83L6139.16,1751.41C6126.96,1763.62 6126.96,1783.4 6139.16,1795.61L6458.74,2115.18C6493.11,2240.95 6545.97,2359.1 6614.23,2466.53L6614.23,2867.07L7014.67,2867.07C7122.19,2935.41 7240.43,2988.34 7366.3,3022.74L7685.69,3342.13C7697.9,3354.34 7717.68,3354.34 7729.89,3342.13L8049.15,3022.88C8489.79,2902.65 8837.12,2555.31 8957.34,2114.68L9276.42,1795.61C9288.62,1783.4 9288.62,1763.62 9276.42,1751.41L8957.34,1432.33C8922.91,1306.17 8869.87,1187.66 8801.35,1079.92L8801.35,679.947L8401.27,679.947C8293.66,611.527 8175.22,558.537 8049.15,524.141L7729.89,204.882C7717.68,192.678 7697.9,192.678 7685.69,204.882L7366.3,524.278ZM7707.79,3275.84L7935.16,3048.47C7861.33,3061.55 7785.44,3068.37 7707.97,3068.37C7630.29,3068.37 7554.19,3061.52 7480.34,3048.39L7707.79,3275.84ZM7441.8,2977L7707.79,2711.01L7973.84,2977.07C7888.22,2995.93 7799.25,3005.87 7707.97,3005.87C7616.62,3005.87 7527.59,2995.91 7441.8,2977ZM8044.46,587.723L7729.89,902.294C7717.68,914.498 7697.9,914.498 7685.69,902.294L7371.2,587.803C6961.5,704.077 6638.39,1027.25 6522.19,1437.02L6836.57,1751.41C6848.78,1763.62 6848.78,1783.4 6836.57,1795.61L6522.19,2109.99C6551.88,2214.71 6595.09,2313.76 6649.81,2405.18L7076.12,2405.18L7076.12,2831.56C7167.47,2886.27 7266.5,2929.49 7371.2,2959.21L7685.69,2644.72C7697.9,2632.52 7717.68,2632.52 7729.89,2644.72L8044.46,2959.29C8454.21,2843.08 8777.34,2520.01 8893.68,2110.28L8579,1795.61C8566.8,1783.4 8566.8,1763.62 8579,1751.41L8893.68,1436.74C8863.98,1332.12 8820.8,1233.14 8766.13,1141.84L8339.46,1141.84L8339.46,715.239C8248.08,660.567 8149.07,617.394 8044.46,587.723ZM7509.83,1295.6L7261.13,1295.6C7243.87,1295.6 7229.88,1309.59 7229.88,1326.85L7229.88,1575.55L7054.03,1751.41C7041.82,1763.62 7041.82,1783.4 7054.03,1795.61L7229.88,1971.46L7229.88,2220.16C7229.88,2237.42 7243.87,2251.41 7261.13,2251.41L7509.83,2251.41L7685.69,2427.27C7697.9,2439.48 7717.68,2439.48 7729.89,2427.27L7905.74,2251.41L8154.45,2251.41C8171.7,2251.41 8185.7,2237.42 8185.7,2220.16L8185.7,1971.46L8361.55,1795.61C8373.76,1783.4 8373.76,1763.62 8361.55,1751.41L8185.7,1575.55L8185.7,1326.85C8185.7,1309.59 8171.7,1295.6 8154.45,1295.6L7905.74,1295.6L7729.89,1119.74C7717.68,1107.54 7697.9,1107.54 7685.69,1119.74L7509.83,1295.6ZM7292.38,2188.91L7447.33,2188.91L7292.38,2033.96L7292.38,2188.91ZM8123.2,2033.96L7968.24,2188.91L8123.2,2188.91L8123.2,2033.96ZM8645.3,1773.51L8911.46,1507.34C8930.37,1593.12 8940.33,1682.16 8940.33,1773.51C8940.33,1864.85 8930.37,1953.89 8911.46,2039.68L8645.3,1773.51ZM6504.41,1507.64L6770.28,1773.51L6504.41,2039.38C6485.55,1953.76 6475.61,1864.79 6475.61,1773.51C6475.61,1682.23 6485.55,1593.26 6504.41,1507.64ZM6205.45,1773.51L6433.09,2001.14C6419.96,1927.29 6413.11,1851.19 6413.11,1773.51C6413.11,1695.83 6419.96,1619.73 6433.09,1545.88L6205.45,1773.51ZM8982.93,1546.32C8996.02,1620.15 9002.83,1696.04 9002.83,1773.51C9002.83,1850.98 8996.02,1926.87 8982.93,2000.7L9210.12,1773.51L8982.93,1546.32ZM7447.33,1358.1L7292.38,1513.05L7292.38,1358.1L7292.38,1358.1L7447.33,1358.1ZM7968.24,1358.1L8123.2,1513.05L8123.2,1358.1L7968.24,1358.1ZM7973.84,569.95L7707.79,836.002L7441.8,570.015C7527.59,551.104 7616.62,541.145 7707.97,541.145C7799.25,541.145 7888.22,551.09 7973.84,569.95ZM7480.34,498.625C7554.19,485.5 7630.29,478.645 7707.97,478.645C7785.44,478.645 7861.33,485.462 7935.16,498.547L7707.79,271.173L7480.34,498.625Z" style="fill:rgb(38,96,86);"/>
        </g>
    </g>
</svg>
