<svg
    width="100%"
    height="100%"
    viewBox="0 0 24 24"
    version="1.1"
    id="lightmode"
    xmlns="http://www.w3.org/2000/svg"
    xmlns:svg="http://www.w3.org/2000/svg">
    <path
        style="fill:#ffffff;"
        d="M12,17c0.552,0 1,0.448 1,1l0,3c0,0.552 -0.448,1 -1,1c-0.552,0 -1,-0.448 -1,-1l0,-3c0,-0.552 0.448,-1 1,-1Zm-7.071,2.071c-0.39,-0.391 -0.39,-1.024 0,-1.414l2.121,-2.121c0.391,-0.391 1.024,-0.391 1.415,-0c0.39,0.39 0.39,1.023 -0,1.414l-2.122,2.121c-0.39,0.391 -1.023,0.391 -1.414,0Zm14.142,0c-0.39,0.391 -1.024,0.391 -1.414,0l-2.121,-2.121c-0.391,-0.391 -0.391,-1.024 -0,-1.414c0.39,-0.391 1.023,-0.391 1.414,-0l2.121,2.121c0.391,0.39 0.391,1.023 0,1.414Zm-7.071,-3.071c2.209,0 4,-1.791 4,-4c0,-2.209 -1.791,-4 -4,-4c-2.209,0 -4,1.791 -4,4c0,2.209 1.791,4 4,4Zm5,-4c0,-0.552 0.448,-1 1,-1l3,0c0.552,0 1,0.448 1,1c0,0.552 -0.448,1 -1,1l-3,0c-0.552,0 -1,-0.448 -1,-1Zm-15,0c0,-0.552 0.448,-1 1,-1l3,0c0.552,0 1,0.448 1,1c0,0.552 -0.448,1 -1,1l-3,0c-0.552,0 -1,-0.448 -1,-1Zm13.536,-3.536c-0.391,-0.39 -0.391,-1.023 -0,-1.414l2.121,-2.121c0.39,-0.391 1.024,-0.391 1.414,-0c0.391,0.39 0.391,1.024 0,1.414l-2.121,2.121c-0.391,0.391 -1.024,0.391 -1.414,0Zm-7.072,0c-0.39,0.391 -1.023,0.391 -1.414,0l-2.121,-2.121c-0.391,-0.39 -0.391,-1.024 -0,-1.414c0.39,-0.391 1.024,-0.391 1.414,-0l2.121,2.121c0.391,0.391 0.391,1.024 0,1.414Zm3.536,-6.464c0.552,0 1,0.448 1,1l0,3c0,0.552 -0.448,1 -1,1c-0.552,0 -1,-0.448 -1,-1l0,-3c0,-0.552 0.448,-1 1,-1Z"
        id="lightmode" />
</svg>
