<?xml version="1.0" encoding="UTF-8" standalone="no"?>
<!DOCTYPE svg PUBLIC "-//W3C//DTD SVG 1.1//EN" "http://www.w3.org/Graphics/SVG/1.1/DTD/svg11.dtd">
<svg width="100%" height="100%" viewBox="0 0 68 68" version="1.1" xmlns="http://www.w3.org/2000/svg" xmlns:xlink="http://www.w3.org/1999/xlink" xml:space="preserve" xmlns:serif="http://www.serif.com/" style="fill-rule:evenodd;clip-rule:evenodd;stroke-linejoin:round;stroke-miterlimit:2;">
    <g transform="matrix(1.64621,0,0,1.64621,-5.64239,-5.64239)">
        <path d="M24,23.5C24.967,23.5 25.792,23.158 26.475,22.475C27.158,21.792 27.5,20.967 27.5,20C27.5,19.033 27.158,18.208 26.475,17.525C25.792,16.842 24.967,16.5 24,16.5C23.033,16.5 22.208,16.842 21.525,17.525C20.842,18.208 20.5,19.033 20.5,20C20.5,20.967 20.842,21.792 21.525,22.475C22.208,23.158 23.033,23.5 24,23.5ZM24,44C18.633,39.433 14.625,35.192 11.975,31.275C9.325,27.358 8,23.733 8,20.4C8,15.4 9.608,11.417 12.825,8.45C16.042,5.483 19.767,4 24,4C28.233,4 31.958,5.483 35.175,8.45C38.392,11.417 40,15.4 40,20.4C40,23.733 38.675,27.358 36.025,31.275C33.375,35.192 29.367,39.433 24,44Z" style="fill:white;fill-rule:nonzero;"/>
    </g>
</svg>
