<?xml version="1.0" encoding="UTF-8" standalone="no"?><!DOCTYPE svg PUBLIC "-//W3C//DTD SVG 1.1//EN" "http://www.w3.org/Graphics/SVG/1.1/DTD/svg11.dtd"><svg width="100%" height="100%" viewBox="0 0 334 359" version="1.1" xmlns="http://www.w3.org/2000/svg" xmlns:xlink="http://www.w3.org/1999/xlink" xml:space="preserve" xmlns:serif="http://www.serif.com/" style="fill-rule:evenodd;clip-rule:evenodd;stroke-linejoin:round;stroke-miterlimit:2;"><path d="M183.166,29.045c9.678,-14.434 30.32,-29.053 56.592,-29.053c34.804,-0 60.439,18.768 66.598,51.811c9.834,0.023 17.198,2.867 18.954,6.769c2.928,6.506 4.557,13.733 4.557,21.295l-0,225.696c-0,20.23 -11.552,37.786 -28.422,46.406c-2.187,1.117 -20.117,5.681 -23.782,5.681l-225.58,0c-13.553,0 -25.901,-5.182 -35.169,-13.674c-1.812,-1.661 -11.474,-14.994 -12.737,-17.943c-2.692,-6.283 -4.185,-13.207 -4.185,-20.47l-0,-225.696c-0,-28.754 23.338,-52.092 52.091,-52.092l117.521,0c2.999,-0 7.592,0.528 13.562,1.27Zm129.326,97.181c-0.677,1.818 -1.374,3.654 -2.088,5.503c-20.703,53.629 -55.205,120.673 -55.205,120.673c-2.977,5.778 -8.938,9.415 -15.441,9.415c-6.503,-0 -12.464,-3.637 -15.44,-9.415c-0,0 -34.499,-67.045 -55.206,-120.674c-0.247,-0.64 -0.493,-1.281 -0.736,-1.918l-40.265,62.028l171.034,141.079c8.123,-6.357 13.347,-16.251 13.347,-27.354l-0,-179.337Zm-295.125,172.414c16.642,-25.636 44.019,-67.809 44.06,-67.869c0.233,-0.383 0.475,-0.756 0.727,-1.129c0,-0 27.409,-42.216 27.396,-42.192c0.541,-1.065 1.2,-2.089 1.978,-3.054c4.672,-7.197 63.367,-97.618 63.367,-97.616c-1.28,-6.125 -1.949,-11.463 -1.949,-15.768c-0,-9.011 1.362,-17.696 3.889,-25.862l-104.752,-0c-19.163,-0 -34.716,15.554 -34.716,34.717l-0,218.773Zm17.392,37.005c5.099,2.945 11.016,4.63 17.324,4.63l118.695,0l-90.428,-74.862l-45.591,70.232Zm218.719,4.63l-144.402,-119.114c0,0 -9.686,14.922 -9.685,14.922l120.187,99.501c1.64,1.356 2.967,2.951 3.971,4.691l29.929,0Zm40.03,-269c0,-29.702 -24.047,-53.908 -53.75,-53.908c-29.706,-0 -53.754,24.069 -53.754,53.908c0,9.747 5.528,26.732 12.904,45.837c12.47,32.295 30.634,70.116 40.85,90.759c10.215,-20.642 28.378,-58.464 40.847,-90.759c7.376,-19.104 12.903,-36.09 12.903,-45.837Zm-53.75,-27.212c14.587,-0 26.43,11.842 26.43,26.429c-0,14.586 -11.843,26.429 -26.43,26.429c-14.586,-0 -26.429,-11.843 -26.429,-26.429c0,-14.587 11.843,-26.429 26.429,-26.429Z" style="fill:#fff;"/></svg>