<svg xmlns="http://www.w3.org/2000/svg" width="26" height="31" viewBox="0 0 26 31">
  <g fill="none" fill-rule="evenodd" class="v2">
    <g fill="#FFF" fill-rule="nonzero" class="v2__theater---musik-ahrensburg--web-v1-spielst채tten" transform="translate(-479 -980)">
      <g class="v2__theater---musik-ahrensburg--web-v1-spielst채tten__header-copy" transform="translate(130 960)">
        <g class="v2__theater---musik-ahrensburg--web-v1-spielst채tten__header-copy__noun-music-1038542" transform="translate(349 20)">
          <path d="M25.3386703,0.252628007 C25.0491534,0.0263633477 24.6717626,-0.0534448248 24.3151729,0.0357026019 L8.70758103,3.93738831 C8.17651708,4.07026043 7.80379593,4.54741142 7.80379593,5.09460681 L7.80379593,21.5928239 C7.01844955,21.0978434 6.09004278,20.8100246 5.09498769,20.8100246 C2.28557022,20.8100246 0,23.0955948 0,25.9050123 C0,28.7144298 2.28557022,31 5.09498769,31 C7.90440517,31 10.1899754,28.7144298 10.1899754,25.9050123 L10.1899754,12.5295022 L23.4118123,9.22425523 L23.4118123,18.9918416 C22.6264659,18.4968611 21.6980592,18.2090423 20.7030041,18.2090423 C17.8935866,18.2090423 15.6080164,20.4946125 15.6080164,23.30403 C15.6080164,26.1134475 17.8935866,28.3990177 20.7030041,28.3990177 C23.5124215,28.3990177 25.7979918,26.1134475 25.7979918,23.30403 L25.7979918,1.1929211 C25.7975673,0.825294096 25.6281871,0.478468155 25.3386703,0.252628007 Z M5.09498769,28.6138205 C3.60113153,28.6138205 2.38617946,27.398444 2.38617946,25.9050123 C2.38617946,24.4115807 3.60155604,23.1962041 5.09498769,23.1962041 C6.58841935,23.1962041 7.80379593,24.4115807 7.80379593,25.9050123 C7.80379593,27.398444 6.58884386,28.6138205 5.09498769,28.6138205 Z M10.1899754,10.0698822 L10.1899754,6.02598517 L23.4118123,2.72073819 L23.4118123,6.76463527 L10.1899754,10.0698822 Z M20.7025796,26.0124137 C19.2087234,26.0124137 17.9937713,24.7970371 17.9937713,23.3036055 C17.9937713,21.8101738 19.2091479,20.5947973 20.7025796,20.5947973 C22.1964357,20.5947973 23.4113878,21.8101738 23.4113878,23.3036055 C23.4113878,24.7970371 22.1964357,26.0124137 20.7025796,26.0124137 Z" class="v2__theater---musik-ahrensburg--web-v1-spielst채tten__header-copy__noun-music-1038542__shape"/>
        </g>
      </g>
    </g>
  </g>
</svg>
