<?xml version="1.0" encoding="UTF-8" standalone="no"?><!DOCTYPE svg PUBLIC "-//W3C//DTD SVG 1.1//EN" "http://www.w3.org/Graphics/SVG/1.1/DTD/svg11.dtd"><svg width="100%" height="100%" viewBox="0 0 2134 2134" version="1.1" xmlns="http://www.w3.org/2000/svg" xmlns:xlink="http://www.w3.org/1999/xlink" xml:space="preserve" xmlns:serif="http://www.serif.com/" style="fill-rule:evenodd;clip-rule:evenodd;stroke-linejoin:round;stroke-miterlimit:2;"><path d="M1572.7,103.381c-1.654,0.049 -3.302,0.221 -4.931,0.515l-331.046,0c-18.127,0.072 -33.021,14.968 -33.091,33.095l-0,33.805l-303.34,0c-18.181,0.065 -33.106,15.043 -33.106,33.225c-0,5.453 1.342,10.823 3.908,15.634l81.431,152.481l-81.431,152.546c-2.633,4.86 -4.013,10.301 -4.013,15.828c0,18.222 14.99,33.218 33.211,33.225l336.431,-0c0.043,0 0.085,0 0.127,0c18.226,0 33.225,-14.998 33.225,-33.224c-0,-0.043 -0.001,-33.738 -0.001,-33.738l269.989,-0l-0,289.389l-81.172,0c-91.793,0 -166.756,74.928 -166.756,166.756l0,100.248c-28.021,-21.334 -62.479,-34.519 -100.247,-34.519l-250.393,-0c-91.794,-0 -166.756,74.928 -166.756,166.755l0,100.248c-28.024,-21.339 -62.539,-34.519 -100.313,-34.519l-250.393,0c-91.793,0 -166.755,74.928 -166.755,166.756l-0,568.72c-0.069,18.224 14.868,33.278 33.092,33.351l1552.32,0c0.043,0 0.085,0 0.127,0c18.227,0 33.225,-14.998 33.225,-33.224c-0,-0.042 -0,-0.085 -0.001,-0.127l0,-189.335c0.006,-0.246 0.009,-0.491 0.009,-0.737c-0,-18.229 -15.001,-33.229 -33.23,-33.229c-18.229,-0 -33.229,15 -33.229,33.229c-0,0.246 0.002,0.491 0.008,0.737l-0,156.244l-450.954,-0l0,-1000.6c0,-56.142 44.072,-100.313 100.248,-100.313l250.393,0c56.175,0 100.313,44.137 100.313,100.313l-0,590.328c-0.006,0.245 -0.008,0.491 -0.008,0.736c-0,18.229 15,33.23 33.229,33.23c18.229,-0 33.23,-15.001 33.23,-33.23c-0,-0.245 -0.003,-0.491 -0.009,-0.736l0,-590.328c0,-91.793 -74.962,-166.755 -166.755,-166.755l-102.714,-0l0,-659.171c0.002,-0.131 0.003,-0.262 0.003,-0.392c-0,-18.227 -14.999,-33.225 -33.225,-33.225c-0.216,-0 -0.432,0.002 -0.648,0.006Zm-302.626,66.962l269.989,-0l-0,269.988l-269.989,-0l0,-269.988Zm-314.369,66.962l247.927,-0l-0,269.988l-247.927,-0l63.782,-119.454c5.254,-9.798 5.254,-21.607 -0,-31.405l-63.782,-119.129Zm-14.21,857.785l250.393,-0c56.175,-0 100.247,44.137 100.247,100.313l0,768.113l-450.953,0l0,-768.113c0,-56.142 44.137,-100.313 100.313,-100.313Zm-517.462,232.484l250.393,0c56.176,0 100.313,44.137 100.313,100.313l0,535.629l-451.018,0l-0,-535.629c-0,-56.142 44.136,-100.313 100.312,-100.313Z" style="fill:#fff;fill-rule:nonzero;"/><path d="M1844.17,2043.42l-1550.49,-0c-26.909,-0 -48.723,-21.814 -48.723,-48.723l0,-581.715c0,-0.936 0.027,-1.872 0.081,-2.807c0,0 10.876,-163.617 166.343,-163.617l280.672,-0c1.765,-0 3.529,0.096 5.284,0.287c-0,0 33.528,4.208 70.621,22.409l-0,-97.333c-0,-50.555 15.776,-84.599 35.796,-108.157c44.2,-52.014 115.214,-52.781 126.41,-52.565l-1.441,-0.043l265.823,-0c33.582,-0 60.681,6.074 82.678,15.644l0,-70.363c0,-50.555 15.777,-84.599 35.796,-108.157c44.201,-52.013 115.215,-52.78 126.41,-52.564l-1.441,-0.044l93.868,-0l0,-274.762l-244.586,-0l0,21.898c0,26.909 -21.814,48.723 -48.722,48.723l-333.185,-0c-16.96,-0 -32.699,-8.819 -41.554,-23.284c-8.855,-14.464 -9.552,-32.493 -1.839,-47.597c0,0 75.542,-147.937 75.543,-147.937l-75.446,-146.176c-7.796,-15.104 -7.157,-33.179 1.687,-47.695c8.843,-14.516 24.611,-23.374 41.609,-23.374l286.982,0l3.265,-24.166c0.475,-3.933 1.419,-7.722 2.775,-11.31c2.878,-7.641 7.59,-14.287 13.538,-19.48c5.944,-5.2 13.16,-8.979 21.118,-10.808c3.737,-0.863 7.619,-1.291 11.58,-1.235l335.958,0c26.909,0 48.723,21.814 48.723,48.723l-0,658.48l74.51,-0c57.036,-0 95.371,17.524 121.774,39.933c57.219,48.567 58.507,126.044 58.201,140.912l0.029,-0.84l0,569.945c0,26.891 -21.831,48.722 -48.722,48.722c-26.891,0 -48.723,-21.831 -48.723,-48.722l0,-569.945c0,-1.119 0.039,-2.237 0.116,-3.353c-0,0 3.483,-39.135 -23.959,-62.426c-12.581,-10.679 -31.538,-16.781 -58.716,-16.781l-265.824,0c-0.983,0 -1.966,-0.03 -2.947,-0.089c-0,-0 -29.971,-2.588 -47.766,18.353c-8.222,9.675 -12.607,24.295 -12.607,45.056l0,327.073c0,1.149 -0.039,2.289 -0.118,3.418l0,659.046c238.069,0 420.893,0 420.893,0l-0,-139.146c-0,-26.891 21.832,-48.723 48.722,-48.723c26.891,0 48.723,21.832 48.723,48.723l-0,187.869c-0,26.909 -21.814,48.723 -48.723,48.723Zm-978.899,-540.764l0,443.318c135.367,0 278.99,0 411.839,0l-0,-754.814c-0,-1.118 0.04,-2.236 0.117,-3.352l-0,-9.281c-0.736,-13.019 -4.849,-36.925 -23.96,-53.146c-12.581,-10.678 -31.538,-16.78 -58.717,-16.78l-265.823,-0c-0.983,-0 -1.966,-0.03 -2.947,-0.089c-0,-0 -29.971,-2.589 -47.767,18.353c-8.221,9.674 -12.606,24.294 -12.606,45.056l0,327.073c0,1.232 -0.046,2.453 -0.136,3.662Zm418.427,-1295.52l2.923,216.325l245.24,-0l0,-237.551l-245.295,0l-2.868,21.226Zm-93.868,265.377l-2.968,-219.603c0,-0 -201.517,-0 -201.517,-0l50.237,97.334c7.201,13.952 7.237,30.52 0.096,44.504l-50.723,99.333l204.875,0l-0,-21.568Zm-422.004,1473.46l0,-526.202c0,-62.406 -64.383,-73.987 -78.396,-75.769l-278.045,0c-61.016,0 -68.211,60.669 -68.978,70.506l-0,531.465l425.419,0Z"/></svg>