<?xml version="1.0" encoding="UTF-8" standalone="no"?><!DOCTYPE svg PUBLIC "-//W3C//DTD SVG 1.1//EN" "http://www.w3.org/Graphics/SVG/1.1/DTD/svg11.dtd"><svg width="100%" height="100%" viewBox="0 0 2134 2134" version="1.1" xmlns="http://www.w3.org/2000/svg" xmlns:xlink="http://www.w3.org/1999/xlink" xml:space="preserve" xmlns:serif="http://www.serif.com/" style="fill-rule:evenodd;clip-rule:evenodd;stroke-linejoin:round;stroke-miterlimit:2;"><path d="M2071.01,1056.81c0.63,3.488 0.959,7.024 0.959,10.57c-0.433,54.141 -5.197,107.849 -13.427,161.124c-30.752,200.105 -127.34,389.382 -267.24,535.347c-139.468,145.531 -324.847,248.616 -522.786,288.03c-209.635,41.581 -425.766,16.459 -620.241,-71.033c-182.78,-82.294 -338.706,-223.061 -442.224,-394.147c-107.416,-177.149 -158.092,-388.516 -141.633,-595.119c16.892,-209.201 97.021,-406.274 229.991,-568.265c127.773,-155.06 305.356,-269.406 498.531,-323.98c200.106,-56.306 419.702,-49.376 614.61,22.523c193.608,71.033 359.93,198.806 479.906,366.427c118.007,164.868 180.702,366.19 183.554,568.523Zm-129.846,10.137c0,-24.255 -0.866,-48.511 -3.898,-72.333c-0.866,-12.127 -2.165,-24.255 -3.465,-35.949c-0.395,-1.583 -2.597,-18.34 -1.326,-9.683c-0.713,-4.886 -1.426,-9.583 -2.139,-14.573c-7.363,-46.344 -18.191,-91.823 -32.484,-136.435c-7.364,-23.822 -16.026,-47.211 -25.555,-70.6c-0.012,-0.029 -0.024,-0.057 -0.036,-0.086c-0.247,-0.46 -0.991,-2.052 -2.563,-5.545c-2.165,-5.197 -4.331,-10.395 -6.93,-15.592c-4.331,-8.663 -8.229,-17.326 -12.561,-25.988c-20.79,-42.447 -45.478,-83.161 -72.765,-122.142c-4.332,-6.064 -9.096,-12.128 -13.427,-18.192c0.433,0.433 -10.828,-14.293 -5.198,-6.93c6.064,7.363 -5.63,-7.363 -5.197,-6.93c-3.465,-4.331 -7.364,-8.663 -10.829,-12.994c-14.293,-17.325 -29.452,-34.217 -45.045,-50.676c-30.679,-31.519 -62.988,-61.407 -97.721,-88.477c-2.024,-1.523 -11.242,-8.519 -12.727,-9.41c-4.764,-3.465 -9.095,-6.497 -13.86,-9.962c-9.096,-6.497 -18.624,-12.994 -28.153,-19.058c-19.058,-12.127 -38.549,-24.255 -58.473,-35.083c-19.924,-11.261 -40.281,-21.656 -61.071,-31.185c-5.197,-2.166 -10.395,-4.765 -15.592,-6.93c-1.947,-0.925 -3.303,-1.587 -4.202,-2.044c-0.438,-0.169 -0.914,-0.354 -1.429,-0.555c-10.395,-4.331 -21.223,-8.663 -32.052,-12.561c-43.746,-16.026 -88.791,-28.586 -134.269,-38.115c-13.427,-2.599 -27.288,-5.198 -40.715,-7.363c-6.063,-0.867 -11.694,-1.733 -17.758,-2.599c14.727,1.732 -4.764,-0.866 -6.497,-0.866c-22.089,-2.599 -43.746,-4.332 -65.835,-5.198c-50.243,-2.166 -100.486,-0.433 -150.729,5.198l-11.695,1.299c7.364,-1.299 7.364,-1.299 -0.433,-0c-6.064,0.866 -12.127,1.732 -17.758,2.599c-9.529,1.732 -19.491,3.465 -29.02,5.197c-22.955,4.765 -45.911,10.395 -68.434,16.459c-24.255,6.497 -48.51,14.293 -71.899,22.956c-9.962,3.465 -19.491,7.363 -29.453,11.261c-3.032,1.3 -14.726,6.497 -3.032,1.3c-5.197,2.165 -10.395,4.764 -15.593,6.93c-43.312,19.491 -84.893,42.446 -124.741,68.434c-17.208,11.605 -34.415,23.581 -51.282,36.267c0.836,-0.547 -7.933,6.387 -8.923,7.046c-4.331,3.465 -8.662,7.363 -12.993,10.828c-8.663,7.363 -16.892,14.727 -25.555,22.09c-33.784,30.319 -65.402,62.803 -94.422,97.454c-4.764,5.63 -9.529,11.261 -14.293,17.325c-0.501,0.501 -2.48,2.994 -4.229,5.227c-6.401,8.942 -13.207,17.883 -19.593,26.824c-12.561,17.759 -24.689,35.95 -35.95,54.575c-12.561,20.357 -23.822,41.147 -34.65,62.37c-5.198,9.962 -10.395,20.357 -15.16,30.752c-2.165,5.198 -4.764,10.395 -6.93,15.593c-0.925,1.946 -1.587,3.303 -2.044,4.201c-0.169,0.439 -0.354,0.914 -0.555,1.43c-17.325,42.879 -31.618,87.058 -42.879,132.104c-6.064,24.688 -11.262,49.81 -15.16,74.931c-0.866,6.064 -1.732,11.695 -2.599,17.758c1.733,-14.726 -0.866,4.765 -0.866,6.497c-1.299,9.962 -2.166,19.924 -3.032,29.886c-4.331,50.243 -4.331,100.919 -0.433,151.162c0.866,12.128 2.166,24.255 3.465,35.95c0.396,1.582 2.598,18.339 1.327,9.683c0.712,4.886 1.425,9.582 2.138,14.572c3.898,23.389 8.23,46.345 13.86,69.301c10.828,45.045 25.122,89.657 42.447,132.537c0.981,2.943 2.209,5.64 3.311,8.275c-1.506,-3.777 -1.108,-2.869 1.453,2.986c2.166,5.198 4.332,10.395 6.93,15.593c5.198,10.395 9.962,20.357 15.16,30.752c10.395,20.357 21.656,40.281 33.351,59.772c11.694,19.491 24.255,38.548 37.249,57.173c5.494,7.692 10.989,15.385 16.746,23.078c-0.088,-0.242 6.437,8.015 7.076,8.973c3.465,4.332 7.363,8.663 10.828,12.994c29.02,34.65 60.205,67.568 93.989,97.887c9.529,9.096 19.924,17.759 29.886,25.988c4.331,3.898 8.662,7.363 12.994,10.828c0.525,0.525 3.239,2.675 5.548,4.481c16.631,12.34 33.268,23.853 50.325,35.367c39.415,25.988 80.995,49.377 124.308,69.301c6.93,3.465 13.86,6.497 20.79,9.528c-13.427,-6.063 3.899,1.733 5.631,2.166c8.663,3.465 17.758,6.93 26.854,10.395c22.09,8.23 44.179,15.16 66.269,21.657c98.753,28.153 172.818,36.816 277.635,32.917c24.255,-0.866 48.078,-3.032 71.9,-5.63c1.582,-0.396 18.339,-2.598 9.682,-1.327c4.886,-0.713 9.583,-1.425 14.573,-2.138c11.261,-1.733 22.956,-3.898 34.65,-6.064c45.912,-9.096 90.957,-21.223 134.703,-37.249c12.561,-4.331 25.122,-9.096 37.682,-14.293c0.029,-0.012 0.058,-0.024 0.086,-0.036c0.46,-0.247 2.052,-0.991 5.545,-2.563c5.198,-2.166 10.395,-4.331 15.593,-6.93c19.057,-8.663 38.115,-18.192 56.306,-28.154c40.996,-22.206 80.308,-47.78 117.521,-75.893c3.324,-2.59 9.706,-7.587 10.685,-8.567c4.332,-3.465 8.663,-7.363 12.994,-10.828c6.93,-6.064 14.294,-12.128 21.224,-18.624c16.892,-15.16 33.351,-30.753 48.943,-47.211c16.892,-17.326 33.351,-35.517 48.944,-54.575c3.898,-4.331 7.363,-8.662 10.828,-12.994c0.505,-0.505 2.517,-3.04 4.278,-5.289c5.504,-7.602 11.008,-14.81 16.512,-22.431c27.72,-38.548 51.976,-79.262 73.632,-121.709c5.198,-9.962 10.395,-20.357 15.159,-30.752c2.166,-5.198 4.765,-10.395 6.931,-15.593c0.924,-1.946 1.586,-3.302 2.043,-4.201c0.169,-0.438 0.354,-0.914 0.555,-1.429c8.663,-21.224 16.459,-42.88 23.822,-64.97c14.727,-44.179 25.555,-89.657 33.351,-136.002c1.3,-7.796 2.166,-15.593 3.465,-23.389c-1.732,14.726 0.867,-4.764 0.867,-6.497c1.299,-12.128 2.598,-23.822 3.465,-35.95c1.732,-24.255 2.598,-48.51 2.598,-72.765Zm-1119.72,-273.235c0.412,2.98 0.59,5.997 0.513,9.026c0.145,4.056 -0.125,7.993 -0.766,11.791c-7.938,79.844 -70.899,147.167 -154.727,147.167c-86.193,0 -155.494,-74.065 -155.494,-158.958c0,-84.893 69.301,-158.958 155.494,-158.958c84.794,-0 148.238,68.884 154.98,149.932Zm-95.209,624.935c-31.618,-15.592 -40.281,-60.205 -22.955,-88.791c18.624,-31.619 57.173,-38.982 88.791,-23.389c28.586,14.293 57.606,28.586 86.193,42.88c102.651,51.109 209.201,60.638 317.483,22.089c47.211,-16.892 99.186,-43.313 147.697,-64.969c32.051,-14.293 69.734,-9.529 88.791,23.389c16.459,27.72 8.663,74.498 -23.389,88.791c-30.319,13.86 -61.071,27.287 -91.39,41.147c-40.714,18.192 -80.995,37.249 -124.308,48.511c-75.364,19.491 -152.894,21.656 -229.125,7.363c-84.893,-16.026 -161.124,-58.905 -237.788,-97.021Zm895.631,-624.935c0.411,2.98 0.589,5.997 0.513,9.026c0.145,4.056 -0.125,7.993 -0.766,11.791c-7.938,79.844 -70.899,147.167 -154.728,147.167c-86.192,0 -155.493,-74.065 -155.493,-158.958c0,-84.893 69.301,-158.958 155.493,-158.958c84.794,-0 148.238,68.884 154.981,149.932Zm-1251.14,-260.148c-0.853,1.1 -1.1,1.426 -0,-0Zm1390.17,1066.33c0.853,-1.1 1.1,-1.426 -0,-0Zm-1227.6,161.702c1.101,0.853 1.426,1.1 0,0Z" style="fill:#fff;"/></svg>