<?xml version="1.0" encoding="UTF-8" standalone="no"?>
<!DOCTYPE svg PUBLIC "-//W3C//DTD SVG 1.1//EN" "http://www.w3.org/Graphics/SVG/1.1/DTD/svg11.dtd">
<svg width="100%" height="100%" viewBox="0 0 68 68" version="1.1" xmlns="http://www.w3.org/2000/svg" xmlns:xlink="http://www.w3.org/1999/xlink" xml:space="preserve" xmlns:serif="http://www.serif.com/" style="fill-rule:evenodd;clip-rule:evenodd;stroke-linejoin:round;stroke-miterlimit:2;">
    <path id="team" d="M33.857,12.379C25.834,12.378 19.331,18.881 19.331,26.904C19.332,34.926 25.835,41.43 33.857,41.43C41.878,41.429 48.382,34.926 48.382,26.904C48.383,18.882 41.879,12.379 33.857,12.379ZM13.716,26.535C9.519,26.536 6.118,29.938 6.118,34.135C6.118,38.331 9.519,41.734 13.716,41.735C17.26,41.724 20.17,39.938 20.95,36.482C18.853,34.18 17.706,30.592 17.391,27.494C16.267,26.868 15.003,26.538 13.716,26.535ZM54.017,26.535C52.731,26.538 51.466,26.868 50.342,27.494C50.027,30.592 48.881,34.18 46.783,36.482C47.564,39.938 50.474,41.724 54.017,41.735C58.214,41.734 61.616,38.331 61.615,34.135C61.616,29.938 58.214,26.536 54.017,26.535ZM13.874,42.785C7.672,42.75 1.471,44.793 1.471,49.019L10.584,49.019C12.791,46.584 16.484,44.851 20.834,43.796C18.766,43.141 16.323,42.799 13.874,42.785ZM53.859,42.785C51.41,42.799 48.967,43.141 46.9,43.796C51.249,44.851 54.942,46.584 57.149,49.019L66.262,49.019C66.262,44.793 60.061,42.75 53.859,42.785ZM33.868,43.438C22.013,43.504 10.159,47.543 10.159,55.355L57.576,55.355C57.576,47.277 45.722,43.371 33.868,43.438Z" style="fill:white;fill-rule:nonzero;"/>
</svg>
