<svg xmlns="http://www.w3.org/2000/svg" width="31" height="30" viewBox="0 0 31 30">
  <g fill="none" fill-rule="evenodd" class="v2">
    <g fill="#FFF" fill-rule="nonzero" class="v2__theater---musik-ahrensburg--web-v1-spielstätten" transform="translate(-1259 -410)">
      <g class="v2__theater---musik-ahrensburg--web-v1-spielstätten__header" transform="translate(130 390)">
        <g class="v2__theater---musik-ahrensburg--web-v1-spielstätten__header__noun-theater-1195073" transform="translate(1129 20)">
          <path d="M5.31800155 16.9162038C5.7352956 16.986405 6.13050833 16.7050903 6.20081298 16.2878137 6.24626098 16.0140306 6.43431821 15.7852908 6.69414534 15.6877584 6.95397246 15.5902259 7.24609557 15.6387184 7.4604747 15.814969 7.67485383 15.9912197 7.7789197 16.268452 7.7334717 16.5422351 7.66327054 16.9595291 7.94458516 17.3547418 8.36186178 17.4250465 8.40470205 17.4286147 8.44776484 17.4286147 8.49060512 17.4250465 8.86364144 17.4243798 9.1820036 17.1551955 9.24467321 16.7874605 9.37882695 15.973777 9.06869518 15.1503324 8.43110154 14.6273101 7.79350789 14.1042879 6.92531802 13.9611476 6.15357064 14.2518088 5.38182327 14.5424699 4.82376518 15.2227743 4.68961147 16.0364577 4.62127966 16.4526676 4.90212777 16.845855 5.31800155 16.9162038L5.31800155 16.9162038zM13.5115951 15.1842994C12.2584361 14.9755011 11.0725793 15.8199956 10.8600955 17.072535 10.8098736 17.344598 10.9101934 17.6226087 11.1225692 17.7999137 11.334945 17.9772187 11.6264004 18.0262872 11.8851244 17.9282952 12.1438484 17.8303031 12.3296679 17.600466 12.371297 17.3269563 12.416745 17.0531732 12.6048022 16.8244334 12.8646294 16.726901 13.1244565 16.6293685 13.4165796 16.677861 13.6309587 16.8541117 13.8453379 17.0303623 13.9494037 17.3075946 13.9039557 17.5813777 13.8337546 17.9986717 14.1150692 18.3938845 14.5323458 18.4641891 14.5751861 18.4677573 14.6182489 18.4677573 14.6610891 18.4641891 15.0341255 18.4635224 15.3524876 18.1943381 15.4151572 17.8266031 15.6177797 16.5716216 14.7661577 15.3894991 13.5115951 15.1842994L13.5115951 15.1842994zM9.54813964 19.8864964C7.73283452 19.5891535 5.90735756 20.3560205 4.84900798 21.8605608 4.6060728 22.2076111 4.69047475 22.6858888 5.03752501 22.928824 5.38457526 23.1717592 5.86285296 23.0873572 6.10578814 22.740307 6.81800926 21.7135638 8.05844965 21.1895854 9.29106725 21.3948032 10.5236849 21.6000209 11.5274453 22.4976348 11.8685849 23.6997513 11.9436015 23.9631307 12.1534309 24.1664824 12.4190324 24.2332058 12.6846339 24.2999292 12.9656563 24.2198875 13.1562413 24.0232315 13.3468262 23.8265756 13.4180192 23.5431822 13.3430026 23.2798028 12.8326626 21.5150495 11.358754 20.1971038 9.54813964 19.8864964zM24.2463368 5.97915113C23.4591686 5.47929473 22.4482116 5.50366785 21.686046 6.04087708 20.9238804 6.57808631 20.5610652 7.5220108 20.7672015 8.43140509 20.8594661 8.84447954 21.2691243 9.10454733 21.6821988 9.01228275 22.0952732 8.92001817 22.355341 8.51035994 22.2630764 8.09728549 22.2028441 7.82897804 22.2903275 7.54891819 22.4925725 7.36260178 22.6948174 7.17628536 22.981098 7.11201828 23.2435752 7.19400932 23.5060524 7.27600035 23.7048497 7.49179312 23.765082 7.76010057 23.8253143 8.02731289 24.0235273 8.24209371 24.2850561 8.32353718 24.5465849 8.40498065 24.831697 8.34071357 25.0329935 8.15494472 25.23429 7.96917587 25.3211892 7.69012797 25.2609569 7.42291565 25.1292193 6.82543497 24.7638478 6.30552569 24.2463368 5.97915113L24.2463368 5.97915113z" class="v2__theater---musik-ahrensburg--web-v1-spielstätten__header__noun-theater-1195073__path"/>
          <path d="M28.5868263,1.01640217 C28.5158293,0.726040508 28.2824795,0.503460712 27.9890894,0.446253128 C21.4132584,-0.842140628 14.5985549,0.688053895 9.20482408,4.66412994 C8.96092445,4.83854057 8.84114914,5.13917661 8.89829234,5.43352462 L9.07914607,6.22744184 C9.23241194,7.00296716 9.38567781,7.79688438 9.57879281,8.61225882 C6.89952519,8.36380057 4.19752643,8.57108855 1.58751021,9.22532231 C1.29514903,9.30072376 1.07431069,9.54076544 1.0234918,9.8383858 L0.873291247,10.6108458 C0.0241983131,15.0187723 -1.03027089,20.5056905 2.15459394,25.61864 C3.43681694,27.6805912 5.5418083,29.0935917 7.93578266,29.4993319 C8.39257298,29.5764414 8.85498809,29.6154032 9.31824083,29.615814 C11.2623492,29.6131177 13.146874,28.944555 14.6580238,27.7214478 C16.7849535,25.9838131 18.3786279,23.6814848 19.256,21.0789049 C22.8722721,21.8085788 26.5414963,20.0939531 28.3017518,16.8518321 C31.2138034,11.5764208 29.8619984,6.15693954 28.776876,1.80418876 L28.5868263,1.01640217 Z M13.6924488,26.525974 C12.1537201,27.7830165 10.1474492,28.3150365 8.18802782,27.9856282 C6.22860646,27.65622 4.50658809,26.4974184 3.46348449,24.8063309 C0.588216724,20.2083547 1.57831426,15.0463602 2.37836212,10.902051 L2.43660315,10.5955192 C8.21013139,9.27203464 14.2728734,10.2916776 19.2958491,13.4309379 L19.2498694,13.7374696 C18.6613284,17.9216279 17.913391,23.117341 13.6924488,26.525974 Z M26.9591428,16.1038947 C25.5445916,18.7075388 22.6250869,20.1166995 19.7066017,19.6044872 C20.0679394,18.2459721 20.3483974,16.8672245 20.5464987,15.4755046 C20.6691114,15.4755046 20.791724,15.4908312 20.9143367,15.4908312 C22.8058893,15.5013653 24.524691,14.3923834 25.2946754,12.6646085 C25.4308415,12.2852562 25.2498818,11.8652618 24.8806431,11.7036693 C24.5114044,11.5420769 24.0800992,11.6941217 23.8938253,12.051545 C23.3533482,13.2704965 22.1172218,14.0299707 20.7855934,13.9612378 L20.8990102,13.1826471 C20.9453114,12.8796967 20.8066656,12.5782928 20.5464987,12.4163178 C19.1247523,11.483004 17.6068928,10.7050625 16.0190248,10.0958725 C16.0914511,9.94307516 16.1108667,9.77049189 16.0742005,9.60542167 C15.9810895,9.1906543 16.2418434,8.77893752 16.6566108,8.68582648 C17.0713782,8.59271543 17.483095,8.85346939 17.576206,9.26823675 C17.6684706,9.68131119 18.0781289,9.94137895 18.4912033,9.84911437 C18.9042777,9.7568498 19.1643455,9.34719159 19.072081,8.93411715 C18.8068666,7.76456469 17.6881984,6.99453992 16.5010372,7.16436325 C15.3138761,7.33418657 14.4559593,8.38696168 14.5292805,9.58396445 C13.4347386,9.24270983 12.3171129,8.9804622 11.1850192,8.79924318 C10.9459244,7.81221097 10.7528094,6.84970129 10.5719557,5.91477946 L10.5106493,5.60824772 C15.3634823,2.19659801 21.372411,0.851480032 27.2166294,1.86856043 L27.2932624,2.17509217 C28.3109478,6.26729097 29.5799892,11.3618486 26.9622081,16.1130906 L26.9591428,16.1038947 Z" class="v2__theater---musik-ahrensburg--web-v1-spielstätten__header__noun-theater-1195073__shape"/>
        </g>
      </g>
    </g>
  </g>
</svg>
