<?xml version="1.0" encoding="UTF-8" standalone="no"?>
<!DOCTYPE svg PUBLIC "-//W3C//DTD SVG 1.1//EN" "http://www.w3.org/Graphics/SVG/1.1/DTD/svg11.dtd">
<svg width="100%" height="100%" viewBox="0 0 68 68" version="1.1" xmlns="http://www.w3.org/2000/svg" xmlns:xlink="http://www.w3.org/1999/xlink" xml:space="preserve" xmlns:serif="http://www.serif.com/" style="fill-rule:evenodd;clip-rule:evenodd;stroke-linejoin:round;stroke-miterlimit:2;">
    <g transform="matrix(1.58817,0,0,1.58817,-5.83747,-4.24931)">
        <path d="M13.05,21.7L24.05,4L35.05,21.7L13.05,21.7ZM35.3,44C32.833,44 30.767,43.167 29.1,41.5C27.433,39.833 26.6,37.767 26.6,35.3C26.6,32.833 27.433,30.767 29.1,29.1C30.767,27.433 32.833,26.6 35.3,26.6C37.767,26.6 39.833,27.433 41.5,29.1C43.167,30.767 44,32.833 44,35.3C44,37.767 43.167,39.833 41.5,41.5C39.833,43.167 37.767,44 35.3,44ZM6,42.75L6,27.55L21.2,27.55L21.2,42.75L6,42.75Z" style="fill:white;fill-rule:nonzero;"/>
    </g>
</svg>
