<?xml version="1.0" encoding="UTF-8" standalone="no"?>
<!DOCTYPE svg PUBLIC "-//W3C//DTD SVG 1.1//EN" "http://www.w3.org/Graphics/SVG/1.1/DTD/svg11.dtd">
<svg width="100%" height="100%" viewBox="0 0 512 512" version="1.1" xmlns="http://www.w3.org/2000/svg" xmlns:xlink="http://www.w3.org/1999/xlink" xml:space="preserve" xmlns:serif="http://www.serif.com/" style="fill-rule:evenodd;clip-rule:evenodd;stroke-linecap:round;stroke-linejoin:round;stroke-miterlimit:1.5;">
    <rect id="block_center_empty" x="185.534" y="185.534" width="140.933" height="140.933" style="fill:none;stroke:rgb(38,96,86);stroke-width:10.24px;"/>
    <path id="block_center_filled" d="M354.866,256l-98.866,-98.866l-98.866,98.866l98.866,98.866l98.866,-98.866Z" style="fill:rgb(38,96,86);stroke:rgb(38,96,86);stroke-width:10.24px;"/>
    <path id="blocks_vertical" d="M256,396.031l51.608,51.608l-51.608,51.608l-51.608,-51.608l51.608,-51.608Zm-0,-383.362l51.594,51.595l-51.594,51.594l-51.594,-51.594l51.594,-51.595Z" style="fill:none;stroke:rgb(38,96,86);stroke-width:10.24px;"/>
    <path id="blocks_horizontal" d="M447.675,204.35l51.65,51.65l-51.65,51.65l-51.65,-51.65l51.65,-51.65Zm-383.358,-0.052l51.646,51.646l-51.646,51.646l-51.646,-51.646l51.646,-51.646Z" style="fill:none;stroke:rgb(38,96,86);stroke-width:10.24px;"/>
    <path id="blocks_filled" d="M422.672,89.384l-0,62.168l-62.168,-0l-0,-62.168l62.168,-0Zm-271.176,271.12l0,62.099l-62.099,-0l0,-62.099l62.099,-0Z" style="fill:rgb(38,96,86);stroke:rgb(38,96,86);stroke-width:10.24px;"/>
    <circle id="circle" cx="256.195" cy="256.195" r="198.453" style="fill:none;stroke:rgb(38,96,86);stroke-width:10.24px;"/>
</svg>
