<svg fill-rule="evenodd" clip-rule="evenodd" stroke-linejoin="round" stroke-miterlimit="2" viewBox="0 0 25 25">
    <path fill="currentColor" d="M5.6.7c0-.4.3-.7.6-.7h18.1c.2 0 .4 0 .5.2l.2.5v20.7c0 2-1.5 3.6-3.4 3.6H4.9c.3-.3.4-.8.6-1.4V.6Zm14.5 17h-9.6c-.2 0-.4 0-.6.2l-.2.5c0 .2.1.4.3.5 0 .2.3.3.5.3H20c.4 0 .8-.4.8-.8l-.2-.5a.7.7 0 0 0-.6-.3Zm0-13.4h-9.6l-.6.3-.2.5c0 .2.1.4.3.5 0 .2.3.3.5.3H20c.4 0 .8-.4.8-.8l-.2-.5a.7.7 0 0 0-.6-.3Zm0 8.9h-9.6c-.2 0-.4 0-.6.2l-.2.5.3.6.5.2H20c.4 0 .8-.3.8-.8l-.2-.5a.7.7 0 0 0-.6-.2Zm0-4.4h-9.6l-.6.3-.2.5.3.6.5.2H20c.4 0 .8-.4.8-.8l-.2-.5a.7.7 0 0 0-.6-.3Zm-16.6-6c.2 0 .3.2.5.3l.2.6v19c0 .6-.2 1.2-.6 1.6A2 2 0 0 1 2 25c-1 0-2-1-2-2.2V3.5c0-.3.3-.6.6-.6h2.9Z"/>
</svg>
