<svg width="100%" height="100%" fill-rule="evenodd" clip-rule="evenodd" stroke-linejoin="round" stroke-miterlimit="2" viewBox="0 0 3163 3163">
    <path fill="currentColor" d="M1238.9 329.2a1301.2 1301.2 0 0 0-909.5 909.5L9.2 1558.9a31.3 31.3 0 0 0 0 44.3l320.2 320.3c34.5 126 87.4 244.4 155.8 352V2677h401.3a1291.2 1291.2 0 0 0 352.4 156l320 320a31.3 31.3 0 0 0 44.3 0l320-319.8a1301.2 1301.2 0 0 0 910-910.1l319.8-319.8a31.3 31.3 0 0 0 0-44.3l-319.8-319.7A1291.3 1291.3 0 0 0 2677 886V485.2H2276a1291 1291 0 0 0-352.8-156.1l-320-320a31.3 31.3 0 0 0-44.3 0l-320 320.1ZM1581 3086.6l227.8-227.9a1303.7 1303.7 0 0 1-455.8 0l228 227.9ZM1314.5 2787l266.6-266.6 266.6 266.7c-85.8 18.9-175 28.8-266.4 28.8-91.6 0-180.8-10-266.8-29Zm604-2394.3L1603.2 708a31.3 31.3 0 0 1-44.3 0L1243.8 393a1238.4 1238.4 0 0 0-850.8 851l315 315a31.3 31.3 0 0 1 0 44.3l-315 315a1228 1228 0 0 0 127.9 295.9H948v427.2a1228.7 1228.7 0 0 0 295.7 128l315.1-315.2a31.3 31.3 0 0 1 44.3 0l315.3 315.2a1238.6 1238.6 0 0 0 851-850.8L2454 1603.3a31.3 31.3 0 0 1 0-44.3l315.3-315.3c-29.7-104.8-73-204-127.8-295.5h-427.5V520.6c-91.6-54.8-190.8-98-295.6-127.8Zm-535.8 709.4h-249.2c-17.3 0-31.3 14-31.3 31.3v249.2L926 1558.9a31.3 31.3 0 0 0 0 44.3l176.2 176.2v249.3c0 17.3 14 31.3 31.3 31.3h249.2l176.2 176.2a31.3 31.3 0 0 0 44.3 0l176.2-176.2h249.3c17.3 0 31.3-14 31.3-31.3v-249.3l176.2-176.2a31.3 31.3 0 0 0 0-44.3L2060 1382.7v-249.2c0-17.3-14-31.3-31.3-31.3h-249.3l-176.2-176.3a31.3 31.3 0 0 0-44.3 0l-176.2 176.3Zm-217.9 895.1h155.3l-155.3-155.2v155.3Zm832.6-155.2L1842 1997.4h155.3V1842Zm523.2-261 266.7-266.8c19 86 28.9 175.2 28.9 266.8 0 91.5-10 180.7-29 266.7l-266.6-266.7ZM375.2 1314.7 641.6 1581l-266.4 266.4c-19-85.8-28.9-175-28.9-266.4 0-91.5 10-180.6 28.9-266.4ZM75.6 1581l228.1 228a1302.6 1302.6 0 0 1 0-456.1L75.6 1581Zm2783.3-227.7a1303 1303 0 0 1 0 455.3l227.7-227.6-227.7-227.7ZM1320 1164.8l-155.3 155.3v-155.3h155.3Zm522 0 155.3 155.3v-155.3H1842Zm5.6-789.8L1581 641.6l-266.6-266.5c86-19 175.2-29 266.8-29 91.4 0 180.6 10 266.4 28.9Zm-494.5-71.5a1303.2 1303.2 0 0 1 455.7 0L1581.1 75.6l-228 228Z"/>
</svg>
