<svg fill-rule="evenodd" clip-rule="evenodd" stroke-linejoin="round" stroke-miterlimit="2" viewBox="0 0 25 25">
    <path fill="currentColor" d="M4.4 19.5c1.3-.8 2.6-1.4 4-1.9 1.2-.4 2.6-.6 4.1-.6 1.5 0 2.9.2 4.2.6 1.3.5 2.6 1.1 3.9 2a11 11 0 0 0 2-3.5c.3-1.1.5-2.3.5-3.6A10.3 10.3 0 0 0 12.5 1.9 10.3 10.3 0 0 0 1.9 12.5c0 1.3.2 2.5.6 3.6.4 1.2 1 2.3 2 3.4Zm8.1-6c-1.2 0-2.2-.5-3-1.3a4.1 4.1 0 0 1-1.3-3c0-1.3.4-2.3 1.3-3 .8-1 1.8-1.3 3-1.3s2.2.4 3 1.2c.9.8 1.3 1.8 1.3 3 0 1.3-.4 2.3-1.3 3.1-.8.8-1.8 1.2-3 1.2Zm0 11.5a12.3 12.3 0 0 1-8.9-3.7 12.6 12.6 0 0 1 0-17.6 12.8 12.8 0 0 1 9-3.7 12.1 12.1 0 0 1 8.7 3.7 12.6 12.6 0 0 1 3.7 8.8A12.8 12.8 0 0 1 17.4 24c-1.5.7-3.2 1-4.9 1Z" fill-rule="nonzero"/>
</svg>
